<svg width="88" height="98" viewBox="0 0 88 98" fill="none" xmlns="http://www.w3.org/2000/svg">
<g clip-path="url(#clip0_104_202)">
<path d="M13.9724 0.081665C14.0364 0.134668 14.0613 0.22946 14.0965 0.234475C14.7394 0.326044 15.384 0.402919 16.0274 0.490954C16.7648 0.591858 17.5008 0.70593 18.2385 0.804453C18.9302 0.896842 19.6241 0.969064 20.3156 1.06365C21.0173 1.15964 21.7166 1.2772 22.418 1.37591C23.0731 1.46811 23.7299 1.54444 24.3853 1.63418C25.123 1.73521 25.8594 1.84849 26.5974 1.94703C27.2891 2.03939 27.983 2.11233 28.6744 2.20692C29.3762 2.30292 30.0754 2.42194 30.7772 2.51798C31.4686 2.6126 32.1626 2.68405 32.8541 2.77855C33.5554 2.87442 34.2546 2.98997 34.9556 3.08939C35.4203 3.15529 35.887 3.20324 36.3518 3.26759C37.2799 3.39607 38.2072 3.53117 39.1351 3.66161C39.3854 3.6968 39.6375 3.75799 39.887 3.74877C40.2583 3.73506 40.5328 3.89082 40.768 4.19671C41.5439 5.20596 42.3267 6.20857 43.0936 7.25052C42.9827 7.34349 42.8817 7.39341 42.788 7.45675C40.7598 8.82792 38.7351 10.2056 36.7043 11.5718C33.361 13.821 30.0123 16.0602 26.6711 18.3133C26.4129 18.4875 26.1962 18.7382 25.9265 18.9614C23.0425 18.9694 20.1922 18.9694 17.2862 18.9694C17.2862 20.6518 17.2862 22.2899 17.2579 23.928C17.1055 23.9686 16.9666 23.9819 16.8593 24.0538C15.2231 25.1496 13.5916 26.254 11.958 27.3547C8.82622 29.4649 5.69463 31.5753 2.56067 33.6815C2.23236 33.9021 1.88869 34.0944 1.54774 34.2686C1.63806 33.9664 1.73774 33.6973 1.82679 33.4239C2.82547 30.3581 3.82007 27.2905 4.82069 24.2255C5.84154 21.0984 6.86756 17.9735 7.89192 14.8479C8.72025 12.3204 9.5493 9.79316 10.3784 7.26597C10.9419 5.54816 11.51 3.83221 12.0678 2.11209C12.2858 1.43998 12.4811 0.758746 12.6867 0.081665C13.1038 0.081665 13.5209 0.081665 13.9724 0.081665Z" fill="#FD315D"/>
<path d="M88.0733 31.3217C88.0247 31.4213 87.938 31.4798 87.9342 31.5444C87.9182 31.8124 87.9331 32.0826 87.926 32.3516C87.9039 33.1941 87.877 34.0364 87.8217 34.92C87.6912 35.092 87.5693 35.2091 87.4943 35.356C87.1032 36.1225 86.7246 36.8969 86.3406 37.6679C85.3543 39.6488 84.3663 41.6285 83.3812 43.6101C81.9772 46.4343 80.5751 49.2597 79.1724 52.0847C78.1527 54.1382 77.1318 56.1908 76.1141 58.2455C74.7787 60.9417 73.4487 63.6414 72.1075 66.3341C71.9791 66.5918 71.7881 66.8109 71.6148 67.0118C71.6014 65.9964 71.5971 65.0172 71.5975 64.0379C71.5995 58.6788 71.6027 53.3197 71.6187 47.9477C71.6435 47.9123 71.6534 47.8889 71.6817 47.8495C72.3219 47.0022 72.942 46.1699 73.5833 45.3237C74.1273 44.6105 74.65 43.9114 75.1943 43.1988C75.5619 42.7363 75.9126 42.2918 76.2525 41.8371C76.5359 41.458 76.8065 41.067 77.1038 40.6672C77.4671 40.2174 77.8164 39.7884 78.1498 39.3445C78.63 38.7052 79.0986 38.0551 79.5937 37.3965C79.6678 37.3271 79.7252 37.2755 79.7721 37.214C80.4765 36.2892 81.1837 35.367 81.8811 34.4356C82.1498 34.0766 82.3954 33.696 82.6757 33.3196C83.4643 32.3087 84.2288 31.3034 85.0154 30.2859C85.5118 29.6288 85.9863 28.9841 86.4805 28.3236C86.9026 27.7738 87.305 27.2396 87.7291 26.6937C87.8583 26.5535 87.9658 26.4251 88.0733 26.2967C88.0733 27.9589 88.0733 29.6212 88.0733 31.3217Z" fill="#1E7CE5"/>
<path d="M57.5696 95.8862C56.8699 96.21 56.172 96.5385 55.4702 96.8564C54.6988 97.2059 53.9234 97.5444 53.1513 97.892C53.0881 97.9204 53.037 97.9824 53.0002 98.0552C52.822 98.0816 52.624 98.0816 52.393 98.0816C52.3095 97.9998 52.275 97.8906 52.206 97.8404C51.2871 97.1722 50.3634 96.5123 49.4529 95.8122C49.5775 95.5825 49.7019 95.3981 49.8012 95.1982C50.4912 93.809 51.1733 92.4149 51.8633 91.0257C52.8363 89.0671 53.8129 87.1108 54.7899 85.1547C55.3643 84.0048 55.9491 82.8614 56.5165 81.7073C56.8787 80.9706 57.2177 80.2198 57.6011 79.4698C60.2769 79.468 62.9186 79.4716 65.5568 79.5043C65.5114 79.6606 65.4836 79.7964 65.4258 79.9138C64.7814 81.222 64.135 82.529 63.4841 83.8333C62.5434 85.7182 61.5968 87.5995 60.6562 89.4845C59.7747 91.2511 58.8939 93.0182 58.0222 94.7908C57.8493 95.1425 57.7193 95.5204 57.5696 95.8862Z" fill="#1E7CE5"/>
<path d="M0.0733337 38.419C0.171108 38.2058 0.298603 38.0405 0.361737 37.8489C0.717755 36.7683 1.05738 35.681 1.40592 34.5973C1.43362 34.5111 1.48656 34.4351 1.53996 34.3271C1.88869 34.0944 2.23236 33.9021 2.56067 33.6815C5.69463 31.5753 8.82623 29.4648 11.958 27.3547C13.5916 26.254 15.2231 25.1496 16.8593 24.0537C16.9666 23.9819 17.1055 23.9686 17.2641 23.9657C17.2943 25.5571 17.2902 27.1108 17.2586 28.6646C17.0527 28.7428 16.8629 28.7986 16.6982 28.9034C16.3185 29.1452 15.9528 29.414 15.5784 29.6662C13.2793 31.2147 10.9794 32.7615 8.6798 34.3091C6.32816 35.8916 3.97615 37.4734 1.62635 39.0594C1.51045 39.1376 1.41416 39.2519 1.30874 39.3493C0.916438 39.2181 0.524134 39.0869 0.102582 38.9553C0.0733336 38.7883 0.0733336 38.6215 0.0733337 38.419Z" fill="#F63462"/>
<path d="M88.0733 26.2694C87.9658 26.4251 87.8583 26.5535 87.7073 26.676C87.4988 26.6534 87.3161 26.5764 87.1715 26.6292C85.8865 27.0986 84.6103 27.5978 83.3277 28.0751C79.5942 29.4647 75.8592 30.8491 72.1235 32.231C71.9647 32.2898 71.7922 32.3031 71.6152 32.3014C71.6067 31.6368 71.6091 31.0083 71.6383 30.3785C72.7612 29.9726 73.8577 29.5695 74.9533 29.1631C78.5325 27.8351 82.1102 26.5018 85.6926 25.1841C86.0095 25.0676 86.3559 25.0501 86.6886 24.9866C87.1328 25.3682 87.577 25.7499 88.0473 26.1324C88.0733 26.1696 88.0733 26.2059 88.0733 26.2694Z" fill="#356EDD"/>
<path d="M12.0969 67.5497C11.0586 66.6422 10.0171 65.739 8.98275 64.8259C8.08835 64.0364 7.20446 63.2321 6.31129 62.4409C5.3347 61.5757 4.35194 60.7192 3.37343 59.8567C2.59199 59.1679 1.8129 58.4758 1.01846 57.7725C3.53867 52.5727 6.05556 47.3797 8.60838 42.159C8.6966 42.1301 8.7489 42.1289 8.82723 42.137C9.8336 42.5068 10.8139 42.8672 11.8123 43.2451C11.9198 43.303 12.0093 43.3433 12.1001 43.417C12.1253 43.6778 12.1702 43.9052 12.1703 44.1326C12.174 51.5339 12.1745 58.9352 12.1701 66.3365C12.1698 66.7409 12.1224 67.1453 12.0969 67.5497Z" fill="#F97A12"/>
<path d="M19.9466 90.5548C18.9704 90.9529 17.9955 91.3549 17.0179 91.7484C14.7371 92.6664 12.454 93.5773 10.174 94.4975C9.22475 94.8807 8.281 95.2808 7.33412 95.6713C7.27965 95.6938 7.21965 95.6996 7.05673 95.7382C7.42904 94.2921 7.78459 92.9112 8.17279 91.4979C8.29611 91.4295 8.39533 91.4091 8.47622 91.3548C11.3189 89.4481 14.1608 87.5401 17.0008 85.6283C19.7678 83.7655 22.5339 81.9011 25.2953 80.0283C25.5127 79.8809 25.6905 79.6613 25.9207 79.4697C27.1488 79.4633 28.3429 79.4605 29.537 79.4621C31.6447 79.465 33.7523 79.4707 35.8554 79.5022C35.6216 79.7036 35.3996 79.8909 35.1624 80.0502C33.077 81.4498 30.9872 82.8413 28.902 84.2414C25.983 86.2013 23.0657 88.1643 20.1544 90.1384C20.0485 90.2102 20.0142 90.413 19.9466 90.5548Z" fill="#8457AB"/>
<path d="M25.8867 79.4753C25.6905 79.6613 25.5127 79.8809 25.2954 80.0283C22.5339 81.9011 19.7678 83.7655 17.0008 85.6283C14.1608 87.5401 11.3189 89.4481 8.47622 91.3548C8.39534 91.4091 8.29611 91.4295 8.17881 91.4662C8.87219 88.657 9.59224 85.8473 10.3121 83.0375C10.3407 82.9259 10.3671 82.8136 10.4379 82.6741C10.5857 82.6165 10.7041 82.6121 10.7928 82.5527C12.6773 81.2879 14.5563 80.0129 16.4428 78.7519C16.7068 78.5754 17.0044 78.4612 17.2923 78.3558C17.2982 78.7414 17.2982 79.0893 17.2982 79.4617C17.497 79.4617 17.6418 79.4615 17.7867 79.4617C20.4867 79.4662 23.1867 79.4708 25.8867 79.4753Z" fill="#8E53A4"/>
<path d="M57.5671 79.4752C57.2177 80.2198 56.8787 80.9706 56.5165 81.7073C55.9491 82.8614 55.3643 84.0048 54.79 85.1547C53.8129 87.1108 52.8363 89.0671 51.8634 91.0257C51.1733 92.4149 50.4913 93.809 49.8012 95.1982C49.7019 95.3981 49.5775 95.5825 49.4418 95.7866C48.8216 95.3882 48.2223 94.981 47.6276 94.5657C46.9608 94.1003 46.2982 93.6276 45.6319 93.1068C46.0469 92.2128 46.4622 91.3692 46.8808 90.5276C47.871 88.5366 48.8622 86.5461 49.8542 84.5562C50.4328 83.3956 51.022 82.2414 51.5899 81.0744C51.8432 80.554 52.0559 80.0091 52.3211 79.4698C54.0925 79.468 55.8298 79.4716 57.5671 79.4752Z" fill="#297CDA"/>
<path d="M52.2871 79.4753C52.0559 80.0091 51.8432 80.554 51.5899 81.0745C51.022 82.2415 50.4328 83.3957 49.8542 84.5563C48.8622 86.5462 47.871 88.5366 46.8808 90.5276C46.4622 91.3692 46.0469 92.2128 45.6197 93.0821C44.3552 92.2115 43.1011 91.3143 41.8269 90.3768C41.9087 90.1536 42.0184 89.9753 42.1116 89.787C42.5524 88.8961 42.9847 88 43.4276 87.1105C44.5139 84.9289 45.6074 82.7517 46.6903 80.568C46.8649 80.2161 47.0003 79.8401 47.1878 79.4699C48.9102 79.4681 50.5987 79.4717 52.2871 79.4753Z" fill="#357CCF"/>
<path d="M19.9734 90.5498C20.0142 90.413 20.0485 90.2102 20.1544 90.1384C23.0657 88.1643 25.983 86.2013 28.902 84.2414C30.9872 82.8413 33.077 81.4498 35.1624 80.0501C35.3996 79.8909 35.6216 79.7035 35.8894 79.4967C38.4723 79.4679 41.0164 79.4716 43.5495 79.4998C43.1784 80.1555 42.8184 80.7869 42.4312 81.4222C41.8804 81.6401 41.356 81.8515 40.8335 82.0686C39.9816 82.4225 39.131 82.7801 38.2516 83.1365C37.1361 83.5752 36.0477 84.0101 34.9623 84.4542C34.6684 84.5744 34.3837 84.7223 34.0948 84.8575C32.5794 85.4692 31.064 86.0809 29.5486 86.6925C26.7925 87.8048 24.0363 88.917 21.2802 90.0292C20.8536 90.2013 20.4269 90.373 19.9734 90.5498Z" fill="#7A5AB1"/>
<path d="M1.33196 39.359C1.41416 39.2519 1.51045 39.1376 1.62635 39.0594C3.97614 37.4735 6.32816 35.8916 8.67979 34.3091C10.9794 32.7616 13.2793 31.2147 15.5784 29.6663C15.9528 29.4141 16.3185 29.1452 16.6982 28.9035C16.8629 28.7986 17.0527 28.7428 17.2648 28.7024C17.2943 30.0488 17.2902 31.3575 17.2587 32.6664C17.0527 32.7446 16.8599 32.7963 16.6978 32.9048C14.5187 34.3639 12.3432 35.8294 10.1683 37.2963C8.46193 38.4473 6.75774 39.6023 5.05256 40.7554C4.27733 40.4714 3.50109 40.1908 2.72726 39.9022C2.26794 39.7308 1.81242 39.5469 1.33196 39.359Z" fill="#EB3769"/>
<path d="M5.06678 40.7821C6.75774 39.6022 8.46194 38.4473 10.1683 37.2963C12.3432 35.8294 14.5187 34.3639 16.6978 32.9048C16.8599 32.7963 17.0527 32.7446 17.2648 32.7041C17.2943 33.9687 17.2902 35.1956 17.2589 36.4228C17.1322 36.463 17.0234 36.4861 16.9343 36.5456C14.4981 38.1739 12.0621 39.8026 9.63182 41.4417C9.33825 41.6397 9.07727 41.8976 8.80119 42.1277C8.74889 42.1289 8.6966 42.1301 8.61815 42.1311C7.42166 41.6902 6.25133 41.2495 5.06678 40.7821Z" fill="#E13970"/>
<path d="M17.2864 78.3182C17.0044 78.4612 16.7068 78.5754 16.4428 78.7519C14.5563 80.0129 12.6773 81.2879 10.7928 82.5527C10.7041 82.6121 10.5857 82.6165 10.4534 82.6466C10.7532 81.3349 11.0763 80.0218 11.4099 78.712C11.7024 77.5632 12.0068 76.4181 12.3444 75.2395C12.4819 75.1565 12.5862 75.115 12.6791 75.0526C13.8928 74.2371 15.1008 73.4109 16.3203 72.6065C16.6237 72.4064 16.9633 72.2747 17.2922 72.1493C17.2942 74.2308 17.2903 76.2745 17.2864 78.3182Z" fill="#99509D"/>
<path d="M42.4583 81.4182C42.8184 80.7869 43.1784 80.1556 43.5835 79.4944C44.8037 79.4681 45.9787 79.4717 47.1537 79.4753C47.0003 79.8401 46.8649 80.2161 46.6903 80.568C45.6074 82.7517 44.5139 84.9289 43.4276 87.1105C42.9847 88 42.5524 88.8961 42.1116 89.787C42.0183 89.9753 41.9087 90.1536 41.8038 90.3643C40.8765 89.7342 39.9523 89.0763 39.0398 88.3804C39.0778 88.3142 39.1121 88.2912 39.129 88.2573C40.1272 86.258 41.1262 84.2592 42.1181 82.256C42.2506 81.9884 42.3458 81.698 42.4583 81.4182Z" fill="#427CC2"/>
<path d="M13.9274 69.179C13.6414 68.9241 13.3555 68.6692 13.072 68.357C13.0919 68.1536 13.1245 68.0074 13.1245 67.8612C13.1266 59.8361 13.1259 51.8111 13.1531 43.7856C13.4829 43.9111 13.7852 44.037 14.085 44.203C14.0816 52.1582 14.0804 60.0735 14.0837 67.9888C14.0837 68.1134 14.1388 68.238 14.1632 68.394C14.0813 68.6766 14.0044 68.9278 13.9274 69.179Z" fill="#E87A23"/>
<path d="M13.915 69.2068C14.0043 68.9278 14.0813 68.6766 14.1783 68.3798C14.2233 68.2825 14.2483 68.2309 14.3015 68.1813C15.0236 67.717 15.7133 67.2427 16.4135 66.7883C16.6925 66.6073 16.9945 66.4704 17.292 66.3511C17.2941 68.2964 17.2902 70.204 17.2863 72.1115C16.9633 72.2747 16.6237 72.4065 16.3203 72.6065C15.1008 73.4109 13.8928 74.2372 12.6791 75.0526C12.5862 75.115 12.4819 75.1565 12.3576 75.2113C12.6554 73.968 12.9764 72.7204 13.3026 71.4746C13.4985 70.7265 13.7024 69.9812 13.915 69.2068Z" fill="#A24D98"/>
<path d="M13.1256 43.7861C13.1259 51.8111 13.1266 59.8361 13.1245 67.8612C13.1245 68.0074 13.0919 68.1536 13.0621 68.3317C12.7395 68.1089 12.4294 67.8542 12.1081 67.5746C12.1224 67.1453 12.1698 66.7409 12.1701 66.3365C12.1745 58.9352 12.174 51.5339 12.1703 44.1326C12.1702 43.9052 12.1253 43.6778 12.1257 43.4243C12.4752 43.5276 12.8004 43.6568 13.1256 43.7861Z" fill="#F07A1B"/>
<path d="M42.4312 81.4222C42.3458 81.698 42.2506 81.9884 42.1181 82.256C41.1262 84.2592 40.1272 86.258 39.129 88.2573C39.1121 88.2912 39.0778 88.3142 39.0286 88.3548C38.2512 87.8371 37.4969 87.3066 36.742 86.7771C36.7019 86.749 36.6571 86.7291 36.613 86.6554C36.9848 85.8835 37.3692 85.1684 37.7273 84.4374C37.9334 84.0169 38.0971 83.5708 38.2798 83.1362C39.131 82.7801 39.9816 82.4225 40.8335 82.0686C41.356 81.8515 41.8804 81.6401 42.4312 81.4222Z" fill="#4D7BB7"/>
<path d="M38.2516 83.1365C38.0971 83.5708 37.9334 84.017 37.7273 84.4374C37.3692 85.1684 36.9848 85.8836 36.6005 86.631C35.7653 86.074 34.941 85.4914 34.1058 84.8832C34.3837 84.7224 34.6684 84.5745 34.9623 84.4543C36.0477 84.0102 37.1362 83.5753 38.2516 83.1365Z" fill="#577BAD"/>
<path d="M50.0035 15.8416C50.8225 14.7347 51.638 13.6245 52.4617 12.5218C53.1177 11.6436 53.7879 10.7785 54.444 9.90035C55.1059 9.01423 55.7548 8.11597 56.4159 7.22898C56.9564 6.50365 57.5105 5.79086 58.0512 5.06562C58.7044 4.18932 59.3478 3.30393 59.9998 2.42639C60.2158 2.13565 60.445 1.85705 60.6666 1.57492C62.1843 2.92656 63.6918 4.2615 65.1915 5.60712C66.2703 6.57498 67.3347 7.56259 68.4128 8.53126C69.4799 9.49006 70.5597 10.4314 71.6273 11.3897C72.2373 11.9373 72.8339 12.5035 73.4675 13.0883C73.5126 13.1324 73.5301 13.1421 73.551 13.1446C73.551 13.1446 73.5556 13.1452 73.5548 13.1795C73.6304 13.3734 73.7069 13.5329 73.802 13.7313C73.7114 13.7708 73.5929 13.8294 73.4704 13.8749C70.8934 14.8318 68.3149 15.7838 65.739 16.7442C64.0298 17.3815 62.3232 18.0277 60.6189 18.6812C60.5147 18.7211 60.4412 18.8602 60.3197 18.9614C58.3678 18.971 56.4496 18.9745 54.5313 18.9727C53.7743 18.972 53.0173 18.9595 52.2452 18.9277C51.5286 18.0051 50.8242 17.1096 50.1294 16.205C50.058 16.1119 50.0441 15.9641 50.0035 15.8416Z" fill="#0D7AF7"/>
<path d="M25.9602 18.9533C26.1962 18.7381 26.4129 18.4875 26.6711 18.3133C30.0123 16.0602 33.361 13.821 36.7043 11.5718C38.7351 10.2056 40.7598 8.82791 42.788 7.45674C42.8817 7.3934 42.9827 7.34348 43.1042 7.27597C43.5908 7.84186 44.0527 8.41998 44.5165 8.99604C44.85 9.41016 45.1863 9.82153 45.4997 10.2657C45.3475 10.3696 45.2114 10.432 45.0872 10.516C43.7879 11.3948 42.4932 12.2821 41.192 13.1572C38.5371 14.9426 35.8778 16.72 33.2247 18.5088C33.0573 18.6216 32.9275 18.8035 32.7464 18.9613C31.7025 18.9708 30.6925 18.9756 29.6824 18.9729C28.4416 18.9696 27.2009 18.9601 25.9602 18.9533Z" fill="#F33564"/>
<path d="M60.3535 18.9532C60.4412 18.8602 60.5147 18.7211 60.6189 18.6812C62.3232 18.0277 64.0298 17.3815 65.739 16.7442C68.3149 15.7838 70.8934 14.8318 73.4704 13.8749C73.5929 13.8294 73.7114 13.7708 73.802 13.7313C73.7069 13.5329 73.6304 13.3734 73.5551 13.1821C74.9517 14.392 76.3509 15.6285 77.7398 16.8792C78.0822 17.1875 78.3911 17.5421 78.7525 17.9051C78.8302 17.9442 78.8707 17.9537 78.9112 17.9631C78.9112 17.9631 78.9068 17.9665 78.9069 17.9953C78.7875 18.1532 78.6881 18.3455 78.5454 18.4018C77.2992 18.8938 76.0472 19.368 74.793 19.8344C73.7352 20.2279 72.6722 20.6041 71.6068 20.95C71.6021 20.2801 71.6021 19.648 71.6021 18.9735C71.361 18.9735 71.1797 18.9735 70.9983 18.9735C67.5958 18.9738 64.1932 18.9743 60.7907 18.9733C60.6449 18.9733 60.4992 18.9602 60.3535 18.9532Z" fill="#1578F2"/>
<path d="M71.6115 20.9879C72.6722 20.6041 73.7352 20.2279 74.793 19.8344C76.0472 19.368 77.2992 18.8938 78.5454 18.4018C78.6881 18.3455 78.7875 18.1532 78.9084 17.9928C80.3739 19.2813 81.8377 20.6013 83.3026 21.9199C83.3664 21.9774 83.44 22.0215 83.5182 22.1287C83.5035 22.5466 83.2136 22.5304 83.0135 22.6056C79.4728 23.9359 75.9296 25.2582 72.3852 26.5764C72.1343 26.6697 71.8697 26.7173 71.6067 26.7484C71.6051 24.803 71.6083 22.8954 71.6115 20.9879Z" fill="#2175EB"/>
<path d="M71.6115 26.7862C71.8697 26.7173 72.1343 26.6697 72.3852 26.5764C75.9296 25.2582 79.4728 23.9359 83.0135 22.6056C83.2136 22.5304 83.5035 22.5466 83.5287 22.1541C84.5756 23.0603 85.6213 23.998 86.6778 24.9612C86.3559 25.0501 86.0095 25.0676 85.6925 25.1841C82.1102 26.5018 78.5325 27.8351 74.9533 29.1631C73.8577 29.5695 72.7612 29.9726 71.6333 30.3407C71.6048 29.1314 71.6082 27.9588 71.6115 26.7862Z" fill="#2D71E2"/>
<path d="M32.7802 18.9533C32.9275 18.8036 33.0574 18.6217 33.2247 18.5088C35.8778 16.72 38.5371 14.9426 41.192 13.1572C42.4932 12.2821 43.7879 11.3948 45.0872 10.5161C45.2114 10.432 45.3475 10.3696 45.5035 10.2937C46.1138 11.0329 46.6986 11.7755 47.2824 12.5687C46.854 12.9281 46.4338 13.2503 45.9979 13.5436C43.4796 15.238 40.9567 16.9241 38.4399 18.6213C38.339 18.6893 38.2835 18.8408 38.173 18.9612C36.3529 18.9638 34.5665 18.9586 32.7802 18.9533Z" fill="#EA376A"/>
<path d="M38.2068 18.9533C38.2835 18.8407 38.339 18.6893 38.4399 18.6213C40.9567 16.9241 43.4796 15.238 45.9979 13.5436C46.4337 13.2503 46.854 12.9281 47.2926 12.5937C47.7409 13.1042 48.181 13.6373 48.6141 14.1773C48.9103 14.5467 49.1969 14.9256 49.4683 15.3262C49.3134 15.3948 49.1616 15.4072 49.045 15.4849C47.4856 16.5234 45.9298 17.5685 44.3786 18.6221C44.2782 18.6903 44.2231 18.8411 44.113 18.961C42.1217 18.9635 40.1643 18.9584 38.2068 18.9533Z" fill="#E03A70"/>
<path d="M44.1469 18.9534C44.2231 18.8411 44.2782 18.6903 44.3786 18.6221C45.9298 17.5685 47.4856 16.5234 49.045 15.4849C49.1616 15.4072 49.3134 15.3948 49.479 15.3512C49.6572 15.514 49.8052 15.6777 49.9783 15.8415C50.0441 15.9641 50.058 16.1119 50.1294 16.205C50.8242 17.1096 51.5286 18.0051 52.2072 18.9347C50.4912 18.9683 48.7982 18.973 47.1051 18.9715C46.119 18.9706 45.133 18.9598 44.1469 18.9534Z" fill="#D33E79"/>
<path d="M78.902 17.9397C78.8707 17.9537 78.8302 17.9442 78.7757 17.9171C78.8055 17.905 78.8491 17.9107 78.902 17.9397Z" fill="#2175EB"/>
<path d="M73.5469 13.1261C73.5304 13.1421 73.5127 13.1324 73.4902 13.1012C73.5079 13.0732 73.5281 13.08 73.5469 13.1261Z" fill="#1578F2"/>
<path d="M44.1131 18.961C45.133 18.9598 46.119 18.9706 47.1051 18.9715C48.7982 18.973 50.4912 18.9683 52.2222 18.9593C53.0173 18.9595 53.7743 18.972 54.5313 18.9727C56.4496 18.9745 58.3678 18.971 60.3197 18.9614C60.4992 18.9602 60.6449 18.9733 60.7907 18.9733C64.1932 18.9743 67.5958 18.9737 70.9983 18.9735C71.1797 18.9735 71.361 18.9735 71.6021 18.9735C71.6021 19.6479 71.6021 20.2801 71.6068 20.95C71.6083 22.8954 71.6051 24.803 71.6067 26.7484C71.6082 27.9588 71.6048 29.1314 71.6065 30.3419C71.6091 31.0083 71.6067 31.6368 71.6041 32.3379C71.6114 32.7959 71.6189 33.1812 71.6152 33.6025C71.6115 34.1045 71.6188 34.5705 71.6151 35.0726C71.6113 35.8196 71.6186 36.5304 71.6148 37.2774C71.611 38.2408 71.6184 39.1682 71.6146 40.1322C71.6108 40.9339 71.6183 41.699 71.6145 42.5008C71.6108 43.112 71.6183 43.6865 71.6146 44.2976C71.6108 44.8271 71.6182 45.32 71.6144 45.8494C71.6035 46.5384 71.6037 47.1907 71.5973 47.8726C71.5957 47.9216 71.6006 47.9411 71.6056 47.9606C71.6027 53.3197 71.5995 58.6788 71.5975 64.0379C71.5971 65.0172 71.6014 65.9964 71.6043 67.0485C71.6052 71.2224 71.6052 75.3235 71.6052 79.4753C69.5588 79.4753 67.5596 79.4753 65.5604 79.4753C62.9186 79.4716 60.2769 79.468 57.6011 79.4698C55.8298 79.4716 54.0925 79.468 52.3211 79.4699C50.5987 79.4717 48.9102 79.4681 47.1878 79.4699C45.9787 79.4717 44.8037 79.4681 43.5946 79.47C41.0164 79.4717 38.4723 79.4679 35.8941 79.4697C33.7523 79.4707 31.6447 79.465 29.537 79.4621C28.3429 79.4605 27.1488 79.4633 25.9207 79.4697C23.1867 79.4707 20.4867 79.4662 17.7867 79.4617C17.6418 79.4615 17.497 79.4617 17.2982 79.4617C17.2982 79.0893 17.2982 78.7414 17.2923 78.3558C17.2903 76.2745 17.2942 74.2308 17.2922 72.1493C17.2902 70.2039 17.2941 68.2964 17.2979 66.3133C17.2954 63.2956 17.2931 60.3534 17.2971 57.3795C17.2992 57.2615 17.2949 57.1754 17.2943 57.0509C17.2988 54.1756 17.301 51.3385 17.2997 48.5015C17.2992 47.4431 17.2906 46.3847 17.2916 45.2884C17.2938 44.1863 17.2901 43.122 17.2921 42.02C17.294 41.1635 17.2901 40.3448 17.292 39.4883C17.2938 38.4412 17.2899 37.4319 17.286 36.4226C17.2902 35.1956 17.2943 33.9687 17.2923 32.704C17.2902 31.3575 17.2943 30.0488 17.2922 28.7023C17.2902 27.1108 17.2943 25.5571 17.2923 23.9657C17.2862 22.2898 17.2862 20.6517 17.2862 18.9694C20.1922 18.9694 23.0425 18.9694 25.9265 18.9613C27.2009 18.9601 28.4417 18.9696 29.6824 18.9729C30.6925 18.9756 31.7025 18.9708 32.7464 18.9613C34.5665 18.9586 36.3529 18.9638 38.173 18.9611C40.1643 18.9584 42.1217 18.9635 44.1131 18.961ZM42.5375 68.1176C35.8109 68.1176 29.0843 68.1176 22.3502 68.1176C22.3502 69.3932 22.3502 70.6329 22.3502 71.8769C29.1399 71.8769 35.9001 71.8769 42.672 71.8769C42.672 70.6351 42.672 69.414 42.6782 68.1466C42.654 68.1404 42.6298 68.1342 42.5375 68.1176ZM34.0226 31.4426C35.02 31.4426 36.0174 31.4426 37.0135 31.4426C37.0135 29.8811 37.0135 28.3642 37.0135 26.8377C33.247 26.8377 29.5004 26.8377 25.7413 26.8377C25.7413 28.3758 25.7413 29.8933 25.7413 31.4478C26.8258 31.4478 27.8949 31.4478 28.9649 31.4478C28.9649 36.7328 28.9649 41.9807 28.9649 47.2713C27.8819 47.2713 26.8142 47.2713 25.7498 47.2713C25.7498 48.8293 25.7498 50.3445 25.7498 51.8532C29.5199 51.8532 33.2653 51.8532 37.0115 51.8532C37.0115 50.3149 37.0115 48.7981 37.0115 47.2562C35.9672 47.2562 34.9446 47.2562 33.8862 47.2562C33.8862 47.0856 33.8862 46.9399 33.8862 46.7942C33.8862 44.1268 33.8849 41.4593 33.8866 38.7919C33.8882 36.3696 33.893 33.9474 33.9239 31.5116C33.9394 31.4963 33.9497 31.4775 34.0226 31.4426ZM52.7633 26.8138C52.0951 26.8138 51.4269 26.8138 50.7404 26.8138C50.7404 27.0114 50.7404 27.1602 50.7404 27.309C50.7404 32.1127 50.7473 36.9164 50.7341 41.7201C50.7317 42.5936 50.6675 43.4689 50.5962 44.3398C50.4019 46.7133 48.7119 47.2881 47.1314 47.0884C46.187 46.969 45.3698 46.3972 44.6584 45.6839C44.329 45.3535 44.0141 45.0051 43.6674 44.6383C42.6193 45.9409 41.5798 47.2328 40.5417 48.5228C40.6488 48.6501 40.7416 48.7575 40.8316 48.8679C41.8273 50.0891 42.9898 51.0766 44.3651 51.6782C45.831 52.3195 47.3788 52.4192 48.9343 52.183C50.5114 51.9435 52.0145 51.4684 53.2622 50.288C54.1948 49.4057 54.8914 48.3268 55.2803 47.037C55.6767 45.722 55.7616 44.348 55.7614 42.9675C55.7606 37.7419 55.7611 32.5164 55.7611 27.2908C55.7611 27.1445 55.7612 26.9982 55.7612 26.8138C54.7612 26.8138 53.799 26.8138 52.7633 26.8138Z" fill="black"/>
<path d="M65.5568 79.5043C67.5596 79.4753 69.5588 79.4753 71.6052 79.4753C71.6052 75.3235 71.6052 71.2224 71.6157 67.0846C71.7881 66.8109 71.9791 66.5918 72.1075 66.3341C73.4487 63.6414 74.7787 60.9417 76.1141 58.2455C77.1318 56.1908 78.1527 54.1382 79.1724 52.0847C80.5751 49.2597 81.9772 46.4343 83.3812 43.6101C84.3663 41.6285 85.3543 39.6488 86.3406 37.6679C86.7246 36.8969 87.1032 36.1225 87.4943 35.356C87.5693 35.2091 87.6912 35.092 87.8163 34.9575C87.8205 36.2275 87.8043 37.5011 87.7771 38.7744C87.7653 39.3271 87.7227 39.8788 87.7081 40.4314C87.6781 41.5695 87.66 42.708 87.6322 43.8462C87.6121 44.6709 87.5839 45.4955 87.5601 46.3201C87.5351 47.1858 87.5115 48.0514 87.4865 48.917C87.4626 49.7419 87.4373 50.5667 87.4135 51.3916C87.3885 52.257 87.3647 53.1225 87.3401 53.9879C87.3158 54.8396 87.2912 55.6914 87.2668 56.5431C87.218 58.2477 87.1695 59.9523 87.1203 61.6568C87.0966 62.4813 87.071 63.3057 87.0472 64.1302C87.0222 64.9958 86.9987 65.8614 86.9738 66.7269C86.9499 67.5514 86.9245 68.3759 86.9007 69.2004C86.8756 70.0658 86.8519 70.9314 86.8271 71.7968C86.8031 72.635 86.7781 73.4731 86.7541 74.3112C86.7293 75.1771 86.7053 76.043 86.6806 76.9089C86.6564 77.7606 86.6381 78.6127 86.6059 79.4641C86.5615 80.6372 86.5063 81.8097 86.455 83.0008C85.2156 83.561 83.974 84.1256 82.7299 84.6837C81.0249 85.4485 79.319 86.2112 77.6116 86.9696C75.9422 87.7111 74.2686 88.4411 72.6002 89.1855C70.7838 89.9959 68.9721 90.8193 67.1567 91.6328C65.7532 92.2618 64.3461 92.8813 62.9426 93.5104C61.2265 94.2797 59.5126 95.0549 57.7972 95.8263C57.7428 95.8507 57.6832 95.8607 57.5978 95.8818C57.7193 95.5204 57.8493 95.1425 58.0222 94.7908C58.8939 93.0182 59.7747 91.2511 60.6562 89.4845C61.5968 87.5995 62.5434 85.7182 63.4841 83.8333C64.135 82.529 64.7814 81.222 65.4258 79.9138C65.4836 79.7964 65.5114 79.6606 65.5568 79.5043Z" fill="#117CF2"/>
<path d="M71.6258 40.0955C71.6184 39.1682 71.611 38.2408 71.6406 37.2766C71.8177 37.1972 71.9603 37.1625 72.0978 37.1111C75.4471 35.8603 78.7953 34.6058 82.1465 33.3616C82.3013 33.3041 82.4826 33.3353 82.6515 33.3253C82.3954 33.696 82.1498 34.0766 81.8811 34.4356C81.1838 35.367 80.4766 36.2892 79.7721 37.2139C79.7252 37.2755 79.6678 37.3271 79.5749 37.3727C79.359 37.3851 79.1739 37.3756 79.0097 37.4361C76.7125 38.2828 74.4186 39.1406 72.1221 39.9899C71.9637 40.0485 71.7916 40.0614 71.6258 40.0955Z" fill="#4F66CC"/>
<path d="M82.6757 33.3197C82.4826 33.3354 82.3013 33.3041 82.1465 33.3616C78.7953 34.6059 75.4471 35.8603 72.0978 37.1111C71.9602 37.1625 71.8177 37.1972 71.6517 37.2405C71.6186 36.5305 71.6113 35.8196 71.6408 35.0718C71.8066 34.9976 71.9382 34.9689 72.0642 34.9218C75.4245 33.666 78.7841 32.4077 82.1442 31.1513C82.941 30.8533 83.7363 30.5494 84.5401 30.2765C84.6687 30.2329 84.8582 29.9946 84.9933 30.2981C84.2288 31.3034 83.4643 32.3087 82.6757 33.3197Z" fill="#4569D3"/>
<path d="M85.0154 30.2859C84.8582 29.9946 84.6687 30.2329 84.5401 30.2765C83.7363 30.5494 82.941 30.8533 82.1442 31.1513C78.7841 32.4077 75.4245 33.666 72.0642 34.9218C71.9382 34.9689 71.8066 34.9976 71.6519 35.0357C71.6188 34.5705 71.6115 34.1046 71.6405 33.6003C71.8868 33.495 72.0994 33.4369 72.3062 33.3595C74.4868 32.543 76.6654 31.7201 78.8466 30.9057C81.2128 30.0223 83.5807 29.1446 85.9494 28.2694C86.1212 28.206 86.3203 28.0504 86.4607 28.3393C85.9863 28.9841 85.5118 29.6289 85.0154 30.2859Z" fill="#3E6BD7"/>
<path d="M86.4805 28.3236C86.3203 28.0504 86.1212 28.206 85.9494 28.2694C83.5808 29.1446 81.2128 30.0223 78.8466 30.9057C76.6654 31.7201 74.4868 32.543 72.3062 33.3595C72.0994 33.4369 71.8868 33.495 71.6516 33.5643C71.6189 33.1812 71.6114 32.7959 71.615 32.374C71.7922 32.3031 71.9647 32.2898 72.1235 32.231C75.8592 30.8491 79.5942 29.4647 83.3277 28.0752C84.6103 27.5978 85.8865 27.0986 87.1715 26.6292C87.3161 26.5764 87.4988 26.6534 87.6856 26.6878C87.305 27.2397 86.9026 27.7738 86.4805 28.3236Z" fill="#396DDA"/>
<path d="M71.6145 40.1322C71.7916 40.0614 71.9636 40.0485 72.1221 39.9899C74.4185 39.1406 76.7125 38.2828 79.0097 37.4361C79.1739 37.3756 79.359 37.3851 79.5533 37.3858C79.0986 38.0551 78.63 38.7052 78.1498 39.3445C77.8164 39.7884 77.4671 40.2174 77.0855 40.643C76.9066 40.6493 76.759 40.6384 76.6288 40.6862C75.1368 41.2341 73.6482 41.7932 72.1566 42.3422C71.9862 42.4049 71.803 42.4245 71.6257 42.4642C71.6183 41.699 71.6108 40.9339 71.6145 40.1322Z" fill="#5D62C3"/>
<path d="M71.6145 42.5008C71.803 42.4245 71.9862 42.4049 72.1566 42.3422C73.6482 41.7932 75.1368 41.2341 76.6288 40.6862C76.759 40.6384 76.9066 40.6493 77.0645 40.6571C76.8065 41.067 76.5359 41.458 76.2524 41.8371C75.9126 42.2918 75.5619 42.7363 75.1823 43.1727C75.0304 43.151 74.9016 43.1032 74.7956 43.1392C74.3223 43.2998 73.8575 43.4911 73.3859 43.6585C72.8011 43.866 72.2127 44.0607 71.6258 44.261C71.6183 43.6865 71.6108 43.112 71.6145 42.5008Z" fill="#685FBC"/>
<path d="M71.6146 44.2977C72.2127 44.0608 72.8011 43.866 73.3859 43.6585C73.8575 43.4912 74.3223 43.2999 74.7956 43.1392C74.9016 43.1033 75.0304 43.151 75.1607 43.1863C74.65 43.9115 74.1273 44.6105 73.5647 45.2989C73.3626 45.304 73.1939 45.2934 73.0395 45.3408C72.5653 45.4862 72.0965 45.6538 71.6256 45.8128C71.6182 45.32 71.6108 44.8272 71.6146 44.2977Z" fill="#715CB7"/>
<path d="M71.6144 45.8495C72.0965 45.6538 72.5653 45.4862 73.0396 45.3407C73.1939 45.2934 73.3626 45.304 73.5434 45.3129C72.942 46.1699 72.3219 47.0022 71.6677 47.8425C71.6337 47.8505 71.6039 47.843 71.6039 47.843C71.6037 47.1907 71.6035 46.5384 71.6144 45.8495Z" fill="#7A5AB1"/>
<path d="M71.5974 47.8726C71.6039 47.843 71.6339 47.8505 71.648 47.8576C71.6538 47.8889 71.6438 47.9123 71.6189 47.9477C71.6007 47.9411 71.5957 47.9216 71.5974 47.8726Z" fill="#35386F"/>
<path d="M17.2589 36.4228C17.2899 37.4319 17.2938 38.4413 17.2647 39.4885C17.1072 39.5726 16.9702 39.5955 16.8603 39.6687C15.5894 40.5154 14.3171 41.36 13.0575 42.2273C12.619 42.5293 12.2144 42.8924 11.7943 43.2276C10.8139 42.8672 9.83361 42.5068 8.82723 42.137C9.07728 41.8976 9.33826 41.6397 9.63183 41.4417C12.0621 39.8026 14.4981 38.1739 16.9343 36.5456C17.0234 36.4861 17.1322 36.463 17.2589 36.4228Z" fill="#D63D76"/>
<path d="M11.8123 43.2451C12.2144 42.8924 12.619 42.5293 13.0575 42.2273C14.3171 41.36 15.5893 40.5154 16.8603 39.6687C16.9702 39.5955 17.1072 39.5726 17.2589 39.5262C17.2901 40.3448 17.294 41.1635 17.266 42.0207C17.1546 42.0896 17.0671 42.1052 16.9968 42.1527C16.2721 42.6422 15.5462 43.1298 14.8299 43.6343C14.6143 43.7861 14.4276 43.9888 14.2043 44.1697C14.1497 44.1685 14.1186 44.1657 14.0875 44.163C13.7852 44.037 13.4829 43.9111 13.1531 43.7856C12.8004 43.6568 12.4752 43.5275 12.1244 43.3909C12.0093 43.3432 11.9198 43.3029 11.8123 43.2451Z" fill="#CD407C"/>
<path d="M14.085 44.203C14.1186 44.1658 14.1497 44.1685 14.2305 44.1788C14.5553 44.2972 14.8305 44.408 15.1059 44.5561C15.1064 47.5956 15.1066 50.5977 15.1067 53.5999C15.1067 57.0639 15.1049 60.528 15.1126 63.992C15.113 64.1398 15.2007 64.2875 15.2464 64.4662C14.9211 65.7246 14.5972 66.9519 14.2733 68.1793C14.2483 68.2309 14.2233 68.2825 14.1833 68.3484C14.1388 68.238 14.0837 68.1134 14.0837 67.9888C14.0804 60.0735 14.0816 52.1582 14.085 44.203Z" fill="#DF7A2B"/>
<path d="M14.3015 68.1813C14.5972 66.9519 14.9211 65.7246 15.2598 64.4394C15.6351 63.0387 15.9958 61.6957 16.3757 60.3318C16.6746 59.3185 16.9542 58.326 17.2398 57.3495C17.2562 57.3861 17.2713 57.4014 17.2908 57.4112C17.2931 60.3534 17.2954 63.2956 17.2919 66.2756C16.9945 66.4704 16.6925 66.6073 16.4135 66.7883C15.7133 67.2426 15.0236 67.717 14.3015 68.1813Z" fill="#AB4B92"/>
<path d="M33.8964 31.5252C33.893 33.9474 33.8881 36.3696 33.8866 38.7919C33.8849 41.4593 33.8862 44.1268 33.8862 46.7942C33.8862 46.9399 33.8862 47.0856 33.8862 47.2562C34.9446 47.2562 35.9672 47.2562 37.0115 47.2562C37.0115 48.7982 37.0115 50.3149 37.0115 51.8532C33.2653 51.8532 29.5199 51.8532 25.7498 51.8532C25.7498 50.3445 25.7498 48.8294 25.7498 47.2713C26.8142 47.2713 27.8819 47.2713 28.9649 47.2713C28.9649 41.9807 28.9649 36.7328 28.9649 31.4478C27.8948 31.4478 26.8258 31.4478 25.7413 31.4478C25.7413 29.8933 25.7413 28.3758 25.7413 26.8377C29.5004 26.8377 33.247 26.8377 37.0135 26.8377C37.0135 28.3642 37.0135 29.8811 37.0135 31.4426C36.0174 31.4426 35.02 31.4426 33.9683 31.4454C33.9082 31.4738 33.9023 31.4995 33.8964 31.5252Z" fill="white"/>
<path d="M52.8 26.8138C53.799 26.8138 54.7612 26.8138 55.7612 26.8138C55.7612 26.9982 55.7611 27.1445 55.7611 27.2908C55.7611 32.5164 55.7606 37.742 55.7614 42.9675C55.7616 44.3481 55.6767 45.7221 55.2803 47.037C54.8914 48.3268 54.1948 49.4057 53.2622 50.288C52.0145 51.4684 50.5114 51.9435 48.9343 52.183C47.3788 52.4192 45.831 52.3195 44.3651 51.6782C42.9898 51.0766 41.8273 50.0891 40.8316 48.8679C40.7416 48.7576 40.6488 48.6501 40.5417 48.5228C41.5798 47.2328 42.6193 45.9409 43.6674 44.6383C44.0141 45.0052 44.329 45.3535 44.6584 45.6839C45.3698 46.3972 46.187 46.969 47.1314 47.0884C48.7119 47.2881 50.4019 46.7133 50.5962 44.3398C50.6675 43.4689 50.7317 42.5936 50.7341 41.7201C50.7473 36.9165 50.7404 32.1127 50.7404 27.309C50.7404 27.1602 50.7404 27.0114 50.7404 26.8138C51.4269 26.8138 52.0951 26.8138 52.8 26.8138Z" fill="white"/>
<path d="M42.672 68.1928C42.672 69.414 42.672 70.6351 42.672 71.8769C35.9001 71.8769 29.1399 71.8769 22.3502 71.8769C22.3502 70.6329 22.3502 69.3932 22.3502 68.1176C29.0843 68.1176 35.8109 68.1176 42.5784 68.1382C42.6339 68.1758 42.6515 68.1872 42.672 68.1928Z" fill="white"/>
<path d="M17.2338 57.3336C16.9542 58.326 16.6746 59.3185 16.3462 60.3244C16.2673 60.1752 16.2107 60.0126 16.2105 59.85C16.2054 54.8765 16.2058 49.903 16.2312 44.9369C16.6 45.0716 16.9428 45.1989 17.2857 45.3263C17.2906 46.3847 17.2992 47.4431 17.2997 48.5015C17.301 51.3385 17.2988 54.1755 17.2785 57.07C17.2507 57.1961 17.2423 57.2648 17.2338 57.3336Z" fill="#CC7B3E"/>
<path d="M17.2916 45.2884C16.9428 45.199 16.5999 45.0716 16.2045 44.9287C15.8031 44.7817 15.4543 44.6503 15.1056 44.5188C14.8304 44.408 14.5553 44.2972 14.2539 44.1773C14.4276 43.9888 14.6143 43.7861 14.8299 43.6343C15.5462 43.1298 16.2721 42.6422 16.9968 42.1527C17.067 42.1052 17.1546 42.0896 17.2602 42.0585C17.2901 43.122 17.2938 44.1863 17.2916 45.2884Z" fill="#C54280"/>
<path d="M17.2398 57.3495C17.2423 57.2649 17.2508 57.1961 17.2751 57.1083C17.2953 57.1754 17.2996 57.2616 17.2975 57.3795C17.2715 57.4015 17.2563 57.3862 17.2398 57.3495Z" fill="#8B4281"/>
<path d="M42.6755 68.1697C42.6517 68.1872 42.634 68.1759 42.6124 68.1435C42.6299 68.1343 42.6542 68.1405 42.6755 68.1697Z" fill="#DBDBDB"/>
<path d="M33.9102 31.5184C33.9022 31.4995 33.9083 31.4738 33.9353 31.4516C33.951 31.4775 33.9404 31.4963 33.9102 31.5184Z" fill="#252525"/>
<path d="M15.1059 44.5562C15.4543 44.6503 15.8031 44.7817 16.1786 44.9213C16.2058 49.9031 16.2054 54.8765 16.2105 59.85C16.2107 60.0127 16.2673 60.1753 16.327 60.3453C15.9958 61.6957 15.6351 63.0387 15.2612 64.4085C15.2007 64.2875 15.113 64.1399 15.1126 63.992C15.1049 60.528 15.1067 57.064 15.1067 53.5999C15.1066 50.5978 15.1064 47.5956 15.1059 44.5562Z" fill="#D57A35"/>
</g>
<defs>
<clipPath id="clip0_104_202">
<rect width="88" height="98" fill="white"/>
</clipPath>
</defs>
</svg>
