<svg width="125" height="125" viewBox="0 0 125 125" fill="none" xmlns="http://www.w3.org/2000/svg">
<path d="M73.6786 16.9656C73.9662 14.7361 74.329 12.6037 74.4196 10.4598C74.4731 9.19511 74.0955 7.91215 73.882 6.43123C75.3975 7.89144 76.1896 9.56272 76.6374 11.3607C77.8738 16.3251 76.4554 20.7897 73.794 24.9419C71.2622 28.8919 67.9708 32.1302 64.4035 35.1744C61.4827 37.667 58.557 40.3057 56.2742 43.3587C52.7972 48.009 53.2407 52.3128 56.1212 57.1803C58.1787 60.6571 60.4609 64.0007 62.6334 67.4097C62.7927 67.6596 62.8756 67.9583 63.139 68.5723C62.0622 67.6176 61.2295 66.9409 60.4677 66.1921C58.3694 64.1297 56.2477 62.0869 54.2344 59.9432C51.9342 57.494 49.9261 54.7929 48.67 51.6587C47.1797 47.9399 47.6492 44.3902 50.2092 41.2393C52.605 38.2904 55.3999 35.7552 58.4002 33.4223C61.2393 31.2148 64.0561 28.9676 66.7515 26.5892C69.7462 23.9466 72.1706 20.8324 73.6786 16.9656Z" fill="#F8981D"/>
<path d="M38.9105 101.843C39.1235 101.972 39.2469 102.066 39.3915 102.176C35.4839 102.792 31.5722 103.289 28.3278 106.018C29.7918 107.778 31.6323 107.988 33.2974 108.342C36.0286 108.923 38.8164 109.259 41.5914 109.611C49.6968 110.64 57.8487 110.419 65.9838 110.305C70.2404 110.246 74.4983 109.786 78.7407 109.36C82.4809 108.983 86.2157 108.493 89.9235 107.876C92.1455 107.507 94.4009 107.087 96.3312 105.734C97.8445 104.673 97.98 104.226 97.016 102.546C98.2599 102.679 99.1182 103.458 99.2462 104.453C99.3345 105.139 98.7486 106.184 98.1416 106.641C94.9006 109.078 90.9914 109.919 87.1524 110.806C84.0073 111.532 80.8057 112.039 77.6093 112.508C75.5438 112.811 73.4452 112.96 71.3568 113.021C64.3102 113.227 57.2609 113.504 50.214 113.47C46.2042 113.451 42.1918 112.933 38.1902 112.542C34.8023 112.21 31.4179 111.806 28.0521 111.3C26.2898 111.035 24.5052 110.653 22.8488 110.017C20.8363 109.243 20.6571 107.786 22.2547 106.304C24.3328 104.377 26.9579 103.473 29.5888 102.639C32.2478 101.796 34.9763 101.348 37.7806 101.57C38.1314 101.598 38.4743 101.726 38.9105 101.843Z" fill="#5382A1"/>
<path d="M66.9721 71.6104C67.825 70.2382 68.9129 68.9558 69.4791 67.474C70.4817 64.8505 69.6437 62.4719 67.8441 60.396C65.6873 57.908 63.9227 55.2187 63.1978 51.9249C62.4163 48.3742 63.1068 45.167 65.2689 42.2897C67.7193 39.0288 70.9421 36.7119 74.4856 34.7458C78.5645 32.4825 82.9097 30.9329 87.3382 29.5661C87.5225 29.5092 87.7398 29.5588 88.2744 29.5588C86.4687 30.6453 84.8458 31.4887 83.369 32.5378C80.1616 34.8164 76.9605 37.1151 73.8974 39.5802C72.5628 40.6542 71.4037 42.047 70.4644 43.4899C68.6615 46.2592 69.3392 49.0108 71.0259 51.6054C72.0191 53.1332 73.0399 54.6445 74.0935 56.1311C76.3893 59.3703 76.2408 62.691 74.1217 65.8008C72.3968 68.332 70.0851 70.3405 67.1988 71.7399C67.034 71.6722 67.0031 71.6413 66.9721 71.6104Z" fill="#F8981D"/>
<path d="M42.8282 68.9175C45.2004 68.6449 47.4765 68.418 49.7526 68.1911C49.774 68.3042 49.7954 68.4173 49.8168 68.5304C48.9333 68.7983 48.0398 69.0374 47.1682 69.3395C44.8358 70.148 42.4931 70.9337 40.1983 71.8396C39.5396 72.0996 39.03 72.7375 38.452 73.2022C38.4617 73.3445 38.4715 73.4868 38.4812 73.629C39.4042 73.9819 40.3008 74.4995 41.2558 74.6522C43.0762 74.9433 44.9278 75.0549 46.7703 75.187C48.4605 75.3081 50.1565 75.4365 51.8488 75.423C55.2914 75.3957 58.7382 75.3637 62.174 75.1692C66.1456 74.9444 70.1186 74.6421 74.0701 74.1905C78.3086 73.7063 82.5227 73.0094 86.761 72.4034C86.7562 72.3702 86.7893 72.4716 86.77 72.4828C83.6338 74.3049 80.4921 76.0508 76.7609 76.4437C73.3436 76.8035 69.9525 77.4059 66.5439 77.8565C65.3484 78.0145 64.1362 78.0901 62.9298 78.1152C57.983 78.2183 53.0265 78.5096 48.0907 78.309C42.7421 78.0916 37.332 77.9792 32.18 76.1699C31.6603 75.9874 31.1514 75.7228 30.7002 75.4068C29.8163 74.788 30.145 73.6452 31.3776 72.9568C34.3967 71.2706 37.652 70.2092 40.9788 69.3413C41.5568 69.1905 42.1474 69.0881 42.8282 68.9175Z" fill="#5382A1"/>
<path d="M76.8745 100.33C73.1457 101.495 69.4541 102.359 65.6349 102.532C62.8846 102.656 60.1233 102.869 57.3804 102.744C53.173 102.553 49.0275 101.877 45.1459 100.091C44.8915 99.9737 44.6394 99.8443 44.4051 99.6918C41.7685 97.9759 41.7638 96.1624 44.4907 94.6056C45.5654 93.9921 46.81 93.6765 48.3018 93.0998C47.6376 93.9188 47.2147 94.4403 46.8338 94.9099C47.779 96.4853 49.3537 96.5245 50.6579 96.612C55.2967 96.9232 59.9565 97.207 64.5982 97.0915C67.6073 97.0166 70.5981 96.2249 73.599 95.7671C73.9125 95.7193 74.2947 95.646 74.5506 95.7736C76.5483 96.7703 78.5229 97.8132 80.6543 98.9195C79.3723 99.4063 78.1724 99.8621 76.8745 100.33Z" fill="#5382A1"/>
<path d="M79.898 85.3935C80.8009 85.8869 81.6371 86.3189 82.8077 86.9236C80.6582 87.4594 78.8429 88.0232 76.986 88.3512C73.3293 88.9971 69.6665 89.7121 65.9746 90.0261C62.1081 90.3549 58.1939 90.4604 54.32 90.2694C50.4646 90.0792 46.5678 89.7667 42.8891 88.3731C41.9659 88.0233 41.0362 87.6345 40.2043 87.1125C38.8575 86.2673 38.7645 84.9097 39.8822 83.7774C41.3669 82.2733 43.3518 81.7724 45.5061 80.8705C44.9566 81.6171 44.608 82.0825 44.2682 82.5543C43.663 83.3949 43.7924 84.1263 44.771 84.4718C45.9247 84.8789 47.123 85.3444 48.3217 85.4071C53.2038 85.6622 58.1036 86.0401 62.9772 85.855C67.1134 85.698 71.2355 84.9081 75.3378 84.2387C77.072 83.9558 78.5557 84.0449 79.898 85.3935Z" fill="#5382A1"/>
<path d="M100.992 110.526C102.092 109.786 103.115 109.094 104.225 108.343C104.235 109.567 103.618 110.542 102.827 111.387C100.753 113.598 98.0301 114.723 95.1973 115.442C91.415 116.402 87.5784 117.171 83.7368 117.866C81.7682 118.222 79.7334 118.195 77.7366 118.416C70.3383 119.234 62.9085 119.012 55.5046 118.822C49.3605 118.665 43.1625 118.336 37.2648 116.211C36.9115 116.084 36.5736 115.914 36.3046 115.507C37.7805 115.666 39.2572 115.818 40.732 115.986C42.7607 116.217 44.7843 116.621 46.8167 116.669C53.6317 116.828 60.4551 117.062 67.2646 116.875C72.0629 116.743 76.8432 115.971 81.6325 115.493C86.5738 115 91.3986 113.917 96.1458 112.508C97.7822 112.022 99.327 111.228 100.992 110.526Z" fill="#5382A1"/>
<path d="M97.463 85.0242C93.9363 87.1966 90.1692 88.53 86.2826 89.5597C86.2201 89.4706 86.1577 89.3815 86.0952 89.2923C86.5704 88.9194 87.0012 88.4609 87.5281 88.1875C90.7907 86.4942 93.8012 84.4516 96.3188 81.7607C97.986 79.9787 99.2984 77.9434 99.3487 75.4042C99.4349 71.0513 94.9003 68.1891 91.1049 68.9484C90.3367 69.1021 89.5928 69.377 88.7208 69.6299C89.4679 67.9929 90.9185 67.8037 92.282 67.5096C95.1585 66.8891 97.898 67.1846 100.44 68.7851C104.887 71.585 105.384 76.9102 102.21 80.7005C100.868 82.3038 99.1025 83.5531 97.463 85.0242Z" fill="#5382A1"/>
<path d="M67.1108 71.7499C66.9791 71.9666 66.8015 72.1364 66.6239 72.3063C66.5691 72.2573 66.5143 72.2084 66.4595 72.1595C66.5919 72.0099 66.7244 71.8603 66.9145 71.6606C67.0031 71.6413 67.034 71.6722 67.1108 71.7499Z" fill="#F8981D"/>
</svg>
