<svg width="128" height="128" viewBox="0 0 128 128" fill="none" xmlns="http://www.w3.org/2000/svg">
<g clip-path="url(#clip0_47_336)">
<path d="M116.452 6.64312C114.66 10.9442 112.365 15.0179 109.615 18.7791C97.5689 6.74011 81.2357 -0.0237006 64.205 -0.0258789C28.984 -0.0258789 8.62209e-09 28.9821 8.62209e-09 64.2421C-0.000142551 72.9491 1.76754 81.5655 5.19593 89.5692C8.62432 97.5728 13.642 104.797 19.945 110.804L22.313 112.904C33.8859 122.662 48.5336 128.017 63.671 128.026C97.158 128.026 125.308 101.786 127.692 68.3431C129.443 51.9721 124.641 31.2661 116.452 6.64312ZM29.067 111.17C28.5515 111.805 27.9008 112.317 27.1623 112.669C26.4237 113.021 25.616 113.204 24.798 113.204C21.78 113.204 19.311 110.72 19.311 107.702C19.311 104.684 21.796 102.201 24.798 102.201C26.048 102.201 27.283 102.634 28.25 103.435C30.601 105.335 30.968 108.819 29.067 111.17ZM116.186 91.9321C100.343 113.054 66.506 105.935 44.81 106.952C44.81 106.952 40.958 107.186 37.089 107.819C37.089 107.819 38.539 107.202 40.424 106.485C55.65 101.184 62.854 100.15 72.109 95.3991C89.536 86.5301 106.763 67.1251 110.349 46.9361C103.712 66.3581 83.599 83.0461 65.272 89.8311C52.715 94.4661 30.034 98.9671 30.034 98.9671L29.117 98.4831C13.675 90.9651 13.207 57.5061 41.274 46.7031C53.565 41.9681 65.322 44.5691 78.597 41.4011C92.772 38.0341 109.165 27.3971 115.835 13.5271C123.306 35.7171 132.296 70.4591 116.186 91.9321Z" fill="#77BC1F"/>
</g>
<defs>
<clipPath id="clip0_47_336">
<rect width="128" height="128" fill="white"/>
</clipPath>
</defs>
</svg>
