<svg width="128" height="128" viewBox="0 0 128 128" fill="none" xmlns="http://www.w3.org/2000/svg">
<path d="M12.834 64.2525C12.8226 54.146 12.8083 44.0396 12.8008 33.9331C12.7956 26.8573 12.7998 19.7816 12.7998 12.6246C47.3532 12.6246 81.8652 12.6246 116.477 12.6246C116.477 29.7753 116.477 46.9072 116.339 64.1498C81.7454 64.2578 47.2897 64.2552 12.834 64.2525ZM60.544 32.1057C55.7429 32.1057 50.9419 32.1057 46.0928 32.1057C46.0928 32.8783 46.0928 33.5377 46.0928 34.1805C52.9195 34.1805 59.673 34.1805 66.4317 34.1805C66.2836 32.1457 66.2428 32.1059 64.3779 32.1057C63.1852 32.1056 61.9926 32.1057 60.544 32.1057ZM60.2879 53.6874C61.6921 53.6878 63.0964 53.6898 64.5006 53.688C66.1745 53.6859 66.4582 53.3727 66.4153 51.5556C59.662 51.5556 52.908 51.5556 46.0871 51.5556C46.0871 52.2517 46.0871 52.9114 46.0871 53.6874C50.7746 53.6874 55.4033 53.6874 60.2879 53.6874ZM72.5927 39.9001C70.9722 40.1769 72.2243 41.2512 71.8277 41.9869C73.56 41.9869 75.0905 42.0125 76.6188 41.9651C76.9225 41.9557 77.2175 41.666 77.5537 41.4857C78.1078 42.2054 87.4359 42.328 88.1259 41.6408C90.0945 42.3359 91.9787 41.8278 93.8366 41.975C93.8366 41.225 93.8366 40.611 93.8366 39.9009C91.1266 39.9009 88.4915 39.8839 85.8568 39.9084C84.611 39.9199 83.0539 39.3655 82.7767 41.6386C82.7114 39.7293 81.5401 39.8793 80.3928 39.8923C77.8779 39.921 75.3625 39.9004 72.5927 39.9001ZM54.9119 30.303C58.0177 30.303 61.1235 30.303 64.5418 30.303C62.8995 28.8356 61.3296 28.1889 59.5053 28.1868C56.0538 28.1829 52.6022 28.1861 49.1507 28.1863C48.1389 28.1864 47.1271 28.1863 46.0674 28.1863C46.0674 28.9453 46.0674 29.5699 46.0674 30.3029C48.9628 30.3029 51.8093 30.3029 54.9119 30.303ZM46.0156 56.9326C46.2754 57.1511 46.5336 57.5578 46.795 57.5599C51.2271 57.5954 55.6602 57.6179 60.0918 57.5575C61.7187 57.5354 63.1669 56.9204 64.4583 55.5817C58.178 55.5817 52.1181 55.5817 46.0153 55.5817C46.0153 56.006 46.0153 56.3442 46.0156 56.9326ZM57.728 43.7965C55.0691 43.7965 52.4103 43.7965 49.7811 43.7965C49.7811 44.595 49.7811 45.2118 49.7811 45.8016C55.0687 45.8016 60.2631 45.8016 65.591 45.8016C64.7856 44.4547 63.9799 43.5635 62.3173 43.7613C60.8917 43.931 59.4298 43.7965 57.728 43.7965ZM50.8681 41.9836C54.8344 41.9842 58.8007 41.9854 62.7671 41.9852C64.2832 41.9852 64.8534 41.5337 65.2981 39.9825C60.1213 39.9825 54.9467 39.9825 49.4147 39.9825C50.1603 40.6647 48.8208 42.0259 50.8681 41.9836ZM35.9684 34.2631C38.7285 34.2631 41.4887 34.2631 44.2937 34.2631C44.2937 33.498 44.2937 32.8428 44.2937 32.1592C40.0065 32.1592 35.8025 32.1592 31.5648 32.1592C31.5648 32.8691 31.5648 33.5216 31.5648 34.2631C32.9994 34.2631 34.356 34.2631 35.9684 34.2631ZM37.248 51.5215C35.3453 51.5215 33.4426 51.5215 31.5415 51.5215C31.5415 52.305 31.5415 52.9315 31.5415 53.5949C35.8266 53.5949 40.0543 53.5949 44.2547 53.5949C44.2547 52.8459 44.2547 52.1958 44.2547 51.5215C41.9337 51.5215 39.7189 51.5215 37.248 51.5215ZM76.9174 32.1038C74.0383 32.1038 71.1593 32.1038 68.284 32.1038C68.284 32.9144 68.284 33.5612 68.284 34.2122C72.3454 34.2122 76.2913 34.2122 80.2453 34.2122C79.9196 32.1118 79.9196 32.1117 77.9341 32.1053C77.6789 32.1044 77.4237 32.1043 76.9174 32.1038ZM97.2665 32.1376C94.0789 32.1268 90.8914 32.1136 87.7038 32.1063C85.703 32.1017 85.703 32.1057 85.3882 34.1998C89.4113 34.1998 93.4274 34.1998 97.4679 34.1998C97.4679 33.5068 97.4679 32.8803 97.2665 32.1376ZM44.152 30.2738C44.2344 29.6051 44.3169 28.9365 44.4022 28.2446C39.9841 28.2446 35.7948 28.2446 31.5495 28.2446C31.5495 28.9319 31.5495 29.5547 31.5495 30.2998C35.6708 30.2998 39.7841 30.2998 44.152 30.2738ZM31.4987 56.4408C31.5206 56.806 31.5425 57.1713 31.5634 57.5199C35.8645 57.5199 40.0667 57.5199 44.279 57.5199C44.279 56.8312 44.279 56.2124 44.279 55.4979C40.1767 55.4979 36.1364 55.488 32.0967 55.5277C31.8962 55.5296 31.6999 55.964 31.4987 56.4408ZM74.8782 30.3051C76.2608 30.3051 77.6434 30.3051 79.1155 30.3051C78.8343 29.4584 78.6249 28.8281 78.4416 28.2759C74.9605 28.2759 71.6127 28.2759 68.2798 28.2759C68.2798 28.993 68.2798 29.6073 68.2798 30.3051C70.454 30.3051 72.5384 30.3051 74.8782 30.3051ZM95.3435 28.1863C93.2129 28.1863 91.0823 28.1879 88.9518 28.1859C86.9273 28.184 86.9273 28.1824 86.7119 30.2116C90.3031 30.2116 93.8947 30.2116 97.4483 30.2116C97.4483 29.4897 97.4483 28.873 97.4483 28.1863C96.7749 28.1863 96.1841 28.1863 95.3435 28.1863ZM70.2989 53.6862C72.589 53.6862 74.8791 53.6862 77.2358 53.6862C77.2358 52.9178 77.2358 52.2668 77.2358 51.5929C74.2077 51.5929 71.2522 51.5929 68.2924 51.5929C68.2924 52.3203 68.2924 52.968 68.2924 53.6866C68.9539 53.6866 69.5036 53.6866 70.2989 53.6862ZM94.838 53.6841C95.7165 53.6841 96.5949 53.6841 97.4873 53.6841C97.4873 52.891 97.4873 52.2657 97.4873 51.5796C94.4845 51.5796 91.5328 51.5796 88.527 51.5796C88.527 52.2885 88.527 52.9377 88.527 53.6841C90.6036 53.6841 92.5941 53.6841 94.838 53.6841ZM90.4932 38.1461C91.6219 38.1461 92.7506 38.1461 93.8588 38.1461C93.8588 37.3652 93.8588 36.7826 93.8588 36.0557C91.2624 36.0557 88.7233 36.0557 86.1842 36.0557C84.3934 36.0558 84.2947 36.1593 84.2487 38.1461C86.2459 38.1461 88.2421 38.1461 90.4932 38.1461ZM77.4393 38.1453C78.7819 38.1453 80.1244 38.1453 81.9297 38.1453C81.3023 37.2449 80.9165 36.1642 80.4725 36.1398C77.6367 35.9839 74.7882 36.0603 71.9033 36.0603C71.9033 36.8046 71.9033 37.4204 71.9033 38.1453C73.7061 38.1453 75.4449 38.1453 77.4393 38.1453ZM74.6193 55.4828C72.5068 55.4828 70.3943 55.4828 68.2818 55.4828C68.2818 56.284 68.2818 56.9023 68.2818 57.5067C71.3215 57.5067 74.2832 57.5067 77.2252 57.5067C77.2252 56.8027 77.2252 56.1823 77.2252 55.4828C76.3944 55.4828 75.6337 55.4828 74.6193 55.4828ZM97.5264 55.9506C97.3768 55.7974 97.2285 55.5119 97.0774 55.5105C94.2362 55.4839 91.3947 55.4909 88.5204 55.4909C88.5204 56.2405 88.5204 56.8579 88.5204 57.518C91.5389 57.518 94.4963 57.518 97.5273 57.518C97.5273 57.0322 97.5273 56.6128 97.5264 55.9506ZM81.7963 43.7953C80.6911 43.7953 79.5859 43.7953 78.4696 43.7953C78.8189 45.895 78.8189 45.8948 80.8046 45.8945C82.2108 45.8943 83.6169 45.8946 85.023 45.8946C86.9358 45.8945 86.9358 45.8945 87.2676 43.7953C85.5184 43.7953 83.7845 43.7953 81.7963 43.7953ZM82.3154 47.6855C81.4436 47.6855 80.5718 47.6855 79.5577 47.6855C79.8306 48.512 80.0387 49.1424 80.2611 49.8162C81.9975 49.8162 83.6912 49.8162 85.4701 49.8162C85.6809 49.1696 85.8977 48.5046 86.1647 47.6855C84.8419 47.6855 83.7043 47.6855 82.3154 47.6855ZM55.3431 48.1387C55.1837 47.9884 55.0268 47.7104 54.8646 47.7073C53.1812 47.6753 51.497 47.6876 49.7722 47.6876C49.7722 48.4713 49.7722 49.1172 49.7722 49.7936C51.6548 49.7936 53.4515 49.7936 55.3481 49.7936C55.3481 49.2691 55.3481 48.8103 55.3431 48.1387ZM66.5374 49.8431C66.5794 49.1531 66.6214 48.4632 66.6634 47.7743C64.5651 47.7743 62.7576 47.7743 60.9271 47.7743C60.9271 48.4929 60.9271 49.119 60.9271 49.8717C62.7532 49.8717 64.5299 49.8717 66.5374 49.8431ZM38.011 47.6846C37.0508 47.6846 36.0906 47.6846 35.1266 47.6846C35.1266 48.4864 35.1266 49.1086 35.1266 49.771C36.9885 49.771 38.7886 49.771 40.5929 49.771C40.5929 49.0582 40.5929 48.4399 40.5929 47.6846C39.7671 47.6846 39.0131 47.6846 38.011 47.6846ZM88.4978 49.6341C90.2815 49.7363 92.0653 49.8384 93.8454 49.9403C93.8454 49.0477 93.8454 48.4267 93.8454 47.7863C92.0106 47.7863 90.2535 47.7863 88.4463 47.7863C88.4463 48.4025 88.4463 48.9114 88.4978 49.6341ZM73.6377 49.856C74.8214 49.856 76.005 49.856 77.2209 49.856C77.2209 49.077 77.2209 48.4278 77.2209 47.7538C75.406 47.7538 73.6792 47.7538 71.9121 47.7538C71.9121 48.4794 71.9121 49.1347 71.9121 49.856C72.4654 49.856 72.9306 49.856 73.6377 49.856ZM66.4534 37.8976C66.5189 37.3239 66.5845 36.7502 66.6566 36.1191C64.638 36.1191 62.7504 36.1191 60.8019 36.1191C60.8019 36.7991 60.8019 37.412 60.8019 38.0793C62.6781 38.0793 64.4893 38.0793 66.4534 37.8976ZM93.9131 44.7021C93.6894 44.3982 93.4785 43.8432 93.2401 43.8311C91.6807 43.7519 90.1154 43.7903 88.5154 43.7903C88.5154 44.5492 88.5154 45.1698 88.5154 45.8964C90.1454 45.8964 91.7183 45.9344 93.2851 45.8537C93.5092 45.8422 93.7038 45.257 93.9131 44.7021ZM35.0803 36.512C35.0803 37.0416 35.0803 37.5713 35.0803 38.0718C37.0299 38.0718 38.7966 38.0718 40.5736 38.0718C40.5736 37.3803 40.5736 36.7684 40.5736 35.9699C38.6911 36.073 36.8959 36.1712 35.0803 36.512ZM55.2426 36.2786C53.4225 36.1742 51.6023 36.0697 49.7768 35.9649C49.7768 36.8448 49.7768 37.4577 49.7768 38.0808C51.6297 38.0808 53.3934 38.0808 55.263 38.0808C55.263 37.5151 55.263 37.0164 55.2426 36.2786ZM39.249 43.7918C37.8967 43.7918 36.5444 43.7918 35.1692 43.7918C35.1692 44.5528 35.1692 45.1981 35.1692 45.8097C37.0294 45.8097 38.7965 45.8097 40.5728 45.8097C40.5728 45.106 40.5728 44.4922 40.5728 43.7881C40.1585 43.7881 39.8254 43.7881 39.249 43.7918ZM40.6541 41.0676C40.6302 40.7009 40.6063 40.3342 40.5824 39.9679C38.7067 39.9679 36.9407 39.9679 35.135 39.9679C35.135 40.6529 35.135 41.2665 35.135 41.9872C36.797 41.9872 38.4038 42.0134 40.0077 41.9568C40.2285 41.949 40.4347 41.5301 40.6541 41.0676ZM72.5814 45.8946C74.1382 45.8946 75.695 45.8946 77.2118 45.8946C77.2118 45.0933 77.2118 44.4774 77.2118 43.8654C75.3938 43.8654 73.6643 43.8654 71.5833 43.8654C71.872 44.6523 72.0995 45.2725 72.5814 45.8946ZM81.1909 51.5226C81.2952 52.1941 81.199 53.2821 81.5461 53.4492C82.2435 53.785 83.2896 53.8698 83.9859 53.5738C84.4787 53.3643 84.6331 52.3589 85.0257 51.5232C83.6226 51.5232 82.5202 51.5232 81.1909 51.5226ZM82.1712 55.7412C82.3606 56.3531 82.55 56.9649 82.7394 57.5768C82.8394 57.5654 82.9394 57.5541 83.0394 57.5428C83.24 56.8957 83.4407 56.2487 83.6902 55.4439C83.0539 55.4935 82.6406 55.5257 82.1712 55.7412Z" fill="#020202"/>
<path d="M12.8114 64.3705C47.2897 64.2551 81.7454 64.2578 116.318 64.2694C116.454 64.8315 116.491 65.3846 116.492 65.9378C116.495 82.1887 116.494 98.4396 116.494 114.69C116.494 115.151 116.494 115.612 116.494 116.156C81.9021 116.156 47.4208 116.156 12.7888 116.156C12.7888 98.918 12.7888 81.7033 12.8114 64.3705ZM115.861 115.328C115.982 114.668 116.207 114.007 116.208 113.347C116.228 97.9368 116.226 82.5265 116.213 67.1162C116.213 66.6737 116.056 66.2313 115.97 65.5812C115.673 64.1874 114.518 64.5313 113.646 64.5307C81.5232 64.509 49.4 64.5098 17.2769 64.5363C16.7728 64.5367 16.2812 64.9517 15.7602 65.0633C15.4799 65.1233 15.1525 64.9196 14.841 64.8881C14.4354 64.8471 13.7282 64.7286 13.6661 64.8701C13.3687 65.5464 13.0853 66.299 13.0839 67.0251C13.0528 82.596 13.0576 98.167 13.0715 113.738C13.0719 114.279 13.1731 114.843 13.3521 115.352C13.4401 115.603 13.8038 115.905 14.0601 115.922C15.1008 115.992 16.1483 115.964 17.1932 115.964C32.167 115.965 47.1407 115.964 62.1144 115.964C79.3492 115.964 96.5839 115.969 113.819 115.943C114.451 115.942 115.082 115.627 115.861 115.328Z" fill="#148E33"/>
<path d="M60.672 32.1057C61.9926 32.1057 63.1852 32.1056 64.3779 32.1057C66.2428 32.1059 66.2836 32.1457 66.4317 34.1805C59.673 34.1805 52.9195 34.1805 46.0928 34.1805C46.0928 33.5377 46.0928 32.8783 46.0928 32.1057C50.9419 32.1057 55.7429 32.1057 60.672 32.1057Z" fill="#E7E7E7"/>
<path d="M60.1599 53.6874C55.4033 53.6874 50.7746 53.6874 46.0871 53.6874C46.0871 52.9114 46.0871 52.2517 46.0871 51.5556C52.908 51.5556 59.662 51.5556 66.4153 51.5556C66.4582 53.3727 66.1745 53.6859 64.5006 53.688C63.0964 53.6898 61.6921 53.6878 60.1599 53.6874Z" fill="#E7E7E7"/>
<path d="M72.72 39.9C75.3626 39.9004 77.878 39.921 80.3928 39.8923C81.5401 39.8793 82.7114 39.7293 82.7767 41.6386C83.0539 39.3655 84.6111 39.9199 85.8568 39.9084C88.4915 39.8839 91.1266 39.9009 93.8366 39.9009C93.8366 40.611 93.8366 41.225 93.8366 41.975C91.9787 41.8278 90.0945 42.3359 88.1259 41.6408C87.4359 42.328 78.1079 42.2054 77.5537 41.4857C77.2176 41.666 76.9225 41.9557 76.6188 41.9651C75.0905 42.0126 73.56 41.9869 71.8277 41.9869C72.2243 41.2512 70.9722 40.1769 72.72 39.9Z" fill="#F8F8F8"/>
<path d="M54.7839 30.3029C51.8093 30.3029 48.9628 30.3029 46.0674 30.3029C46.0674 29.5698 46.0674 28.9453 46.0674 28.1863C47.1271 28.1863 48.1389 28.1864 49.1507 28.1863C52.6022 28.1861 56.0538 28.1829 59.5053 28.1868C61.3296 28.1889 62.8995 28.8356 64.5418 30.3029C61.1235 30.3029 58.0177 30.3029 54.7839 30.3029Z" fill="#F7F7F7"/>
<path d="M46.0155 56.8075C46.0153 56.3442 46.0153 56.006 46.0153 55.5817C52.1182 55.5817 58.178 55.5817 64.4583 55.5817C63.1669 56.9204 61.7187 57.5354 60.0918 57.5575C55.6602 57.6179 51.2271 57.5954 46.795 57.5599C46.5336 57.5578 46.2754 57.1511 46.0155 56.8075Z" fill="#F9F9F9"/>
<path d="M57.856 43.7965C59.4298 43.7965 60.8917 43.931 62.3173 43.7613C63.9799 43.5635 64.7856 44.4547 65.591 45.8016C60.2631 45.8016 55.0687 45.8016 49.7811 45.8016C49.7811 45.2118 49.7811 44.595 49.7811 43.7965C52.4103 43.7965 55.0691 43.7965 57.856 43.7965Z" fill="#F8F8F8"/>
<path d="M50.7468 41.9851C48.8208 42.0259 50.1603 40.6647 49.4147 39.9825C54.9467 39.9825 60.1213 39.9825 65.2982 39.9825C64.8534 41.5337 64.2832 41.9852 62.7671 41.9852C58.8007 41.9854 54.8344 41.9842 50.7468 41.9851Z" fill="#FAFAFA"/>
<path d="M35.8405 34.2631C34.356 34.2631 32.9994 34.2631 31.5648 34.2631C31.5648 33.5217 31.5648 32.8691 31.5648 32.1592C35.8025 32.1592 40.0065 32.1592 44.2937 32.1592C44.2937 32.8428 44.2937 33.498 44.2937 34.2631C41.4887 34.2631 38.7285 34.2631 35.8405 34.2631Z" fill="#E7E7E7"/>
<path d="M37.376 51.5215C39.7189 51.5215 41.9337 51.5215 44.2547 51.5215C44.2547 52.1958 44.2547 52.8459 44.2547 53.5949C40.0543 53.5949 35.8266 53.5949 31.5415 53.5949C31.5415 52.9315 31.5415 52.305 31.5415 51.5215C33.4426 51.5215 35.3453 51.5215 37.376 51.5215Z" fill="#E7E7E7"/>
<path d="M77.0429 32.1039C77.4237 32.1043 77.6789 32.1044 77.9341 32.1053C79.9196 32.1117 79.9196 32.1118 80.2453 34.2122C76.2913 34.2122 72.3454 34.2122 68.284 34.2122C68.284 33.5612 68.284 32.9144 68.284 32.1038C71.1593 32.1038 74.0383 32.1038 77.0429 32.1039Z" fill="#E5E5E5"/>
<path d="M97.3672 32.1956C97.4679 32.8802 97.4679 33.5068 97.4679 34.1998C93.4274 34.1998 89.4113 34.1998 85.3882 34.1998C85.703 32.1056 85.703 32.1017 87.7038 32.1063C90.8914 32.1136 94.0789 32.1268 97.3672 32.1956Z" fill="#E7E7E7"/>
<path d="M44.0248 30.2868C39.7841 30.2998 35.6708 30.2998 31.5495 30.2998C31.5495 29.5547 31.5495 28.9319 31.5495 28.2446C35.7948 28.2446 39.9841 28.2446 44.4022 28.2446C44.3169 28.9365 44.2344 29.6051 44.0248 30.2868Z" fill="#F8F8F8"/>
<path d="M31.5002 56.3189C31.6999 55.964 31.8962 55.5296 32.0967 55.5277C36.1364 55.488 40.1767 55.4979 44.279 55.4979C44.279 56.2124 44.279 56.8312 44.279 57.5199C40.0667 57.5199 35.8645 57.5199 31.5634 57.5199C31.5425 57.1713 31.5206 56.806 31.5002 56.3189Z" fill="#FAFAFA"/>
<path d="M74.7506 30.3051C72.5385 30.3051 70.454 30.3051 68.2798 30.3051C68.2798 29.6073 68.2798 28.993 68.2798 28.2759C71.6128 28.2759 74.9605 28.2759 78.4416 28.2759C78.625 28.8281 78.8343 29.4584 79.1155 30.3051C77.6434 30.3051 76.2608 30.3051 74.7506 30.3051Z" fill="#F5F5F5"/>
<path d="M95.4683 28.1863C96.1841 28.1863 96.775 28.1863 97.4483 28.1863C97.4483 28.8731 97.4483 29.4897 97.4483 30.2116C93.8947 30.2116 90.3032 30.2116 86.7119 30.2116C86.9273 28.1824 86.9273 28.184 88.9518 28.1859C91.0823 28.1879 93.2129 28.1863 95.4683 28.1863Z" fill="#F7F7F7"/>
<path d="M70.1761 53.6864C69.5036 53.6866 68.9539 53.6866 68.2924 53.6866C68.2924 52.968 68.2924 52.3203 68.2924 51.5929C71.2522 51.5929 74.2077 51.5929 77.2358 51.5929C77.2358 52.2668 77.2358 52.9178 77.2358 53.6862C74.8791 53.6862 72.589 53.6862 70.1761 53.6864Z" fill="#E4E4E4"/>
<path d="M94.7113 53.6841C92.5941 53.6841 90.6036 53.6841 88.527 53.6841C88.527 52.9377 88.527 52.2885 88.527 51.5796C91.5328 51.5796 94.4845 51.5796 97.4873 51.5796C97.4873 52.2657 97.4873 52.891 97.4873 53.6841C96.5949 53.6841 95.7165 53.6841 94.7113 53.6841Z" fill="#E6E6E6"/>
<path d="M90.3658 38.1461C88.2421 38.1461 86.2459 38.1461 84.2487 38.1461C84.2947 36.1593 84.3934 36.0558 86.1842 36.0557C88.7233 36.0557 91.2624 36.0557 93.8588 36.0557C93.8588 36.7826 93.8588 37.3652 93.8588 38.1461C92.7506 38.1461 91.6219 38.1461 90.3658 38.1461Z" fill="#F9F9F9"/>
<path d="M77.3115 38.1453C75.4449 38.1453 73.7061 38.1453 71.9033 38.1453C71.9033 37.4204 71.9033 36.8046 71.9033 36.0603C74.7882 36.0603 77.6368 35.9839 80.4726 36.1398C80.9165 36.1642 81.3023 37.2449 81.9297 38.1453C80.1244 38.1453 78.7819 38.1453 77.3115 38.1453Z" fill="#FAFAFA"/>
<path d="M74.7461 55.4828C75.6337 55.4828 76.3944 55.4828 77.2252 55.4828C77.2252 56.1823 77.2252 56.8027 77.2252 57.5067C74.2832 57.5067 71.3215 57.5067 68.2818 57.5067C68.2818 56.9023 68.2818 56.284 68.2818 55.4828C70.3943 55.4828 72.5068 55.4828 74.7461 55.4828Z" fill="#F7F7F7"/>
<path d="M97.5269 56.072C97.5273 56.6128 97.5273 57.0322 97.5273 57.518C94.4963 57.518 91.5389 57.518 88.5204 57.518C88.5204 56.8579 88.5204 56.2405 88.5204 55.4909C91.3947 55.4909 94.2363 55.4839 97.0775 55.5105C97.2285 55.5119 97.3768 55.7974 97.5269 56.072Z" fill="#FBFBFB"/>
<path d="M81.9234 43.7953C83.7845 43.7953 85.5184 43.7953 87.2676 43.7953C86.9358 45.8945 86.9358 45.8945 85.023 45.8946C83.6169 45.8946 82.2108 45.8943 80.8046 45.8945C78.8189 45.8948 78.8189 45.895 78.4695 43.7953C79.5859 43.7953 80.6911 43.7953 81.9234 43.7953Z" fill="#F6F6F6"/>
<path d="M82.4411 47.6855C83.7043 47.6855 84.8419 47.6855 86.1648 47.6855C85.8977 48.5046 85.6809 49.1696 85.4701 49.8162C83.6912 49.8162 81.9975 49.8162 80.2611 49.8162C80.0387 49.1424 79.8306 48.512 79.5577 47.6855C80.5718 47.6855 81.4436 47.6855 82.4411 47.6855Z" fill="#E4E4E4"/>
<path d="M55.3456 48.2451C55.3481 48.8103 55.3481 49.2691 55.3481 49.7936C53.4515 49.7936 51.6548 49.7936 49.7722 49.7936C49.7722 49.1172 49.7722 48.4713 49.7722 47.6876C51.497 47.6876 53.1812 47.6753 54.8646 47.7073C55.0268 47.7104 55.1837 47.9884 55.3456 48.2451Z" fill="#E5E5E5"/>
<path d="M66.4221 49.8574C64.5299 49.8717 62.7532 49.8717 60.9271 49.8717C60.9271 49.119 60.9271 48.4929 60.9271 47.7743C62.7576 47.7743 64.5651 47.7743 66.6634 47.7743C66.6214 48.4631 66.5794 49.1531 66.4221 49.8574Z" fill="#E8E8E8"/>
<path d="M38.1351 47.6846C39.0131 47.6846 39.7671 47.6846 40.5929 47.6846C40.5929 48.4399 40.5929 49.0582 40.5929 49.771C38.7886 49.771 36.9885 49.771 35.1266 49.771C35.1266 49.1086 35.1266 48.4864 35.1266 47.6846C36.0906 47.6846 37.0508 47.6846 38.1351 47.6846Z" fill="#E3E3E3"/>
<path d="M88.472 49.5272C88.4463 48.9114 88.4463 48.4025 88.4463 47.7863C90.2535 47.7863 92.0106 47.7863 93.8454 47.7863C93.8454 48.4267 93.8454 49.0477 93.8454 49.9403C92.0653 49.8384 90.2815 49.7363 88.472 49.5272Z" fill="#E5E5E5"/>
<path d="M73.5168 49.856C72.9306 49.856 72.4654 49.856 71.9121 49.856C71.9121 49.1346 71.9121 48.4794 71.9121 47.7538C73.6792 47.7538 75.406 47.7538 77.2209 47.7538C77.2209 48.4278 77.2209 49.077 77.2209 49.856C76.005 49.856 74.8214 49.856 73.5168 49.856Z" fill="#E6E6E6"/>
<path d="M66.377 37.9884C64.4893 38.0793 62.6781 38.0793 60.8019 38.0793C60.8019 37.412 60.8019 36.7991 60.8019 36.1191C62.7504 36.1191 64.638 36.1191 66.6566 36.1191C66.5845 36.7502 66.5189 37.3239 66.377 37.9884Z" fill="#F6F6F6"/>
<path d="M93.9126 44.8198C93.7038 45.257 93.5092 45.8422 93.2851 45.8537C91.7183 45.9344 90.1454 45.8964 88.5154 45.8964C88.5154 45.1698 88.5154 44.5492 88.5154 43.7904C90.1154 43.7904 91.6808 43.752 93.2401 43.8311C93.4786 43.8432 93.6894 44.3982 93.9126 44.8198Z" fill="#F5F5F5"/>
<path d="M35.0905 36.3907C36.8959 36.1712 38.6911 36.0729 40.5736 35.9699C40.5736 36.7684 40.5736 37.3803 40.5736 38.0718C38.7966 38.0718 37.0299 38.0718 35.0803 38.0718C35.0803 37.5712 35.0803 37.0416 35.0905 36.3907Z" fill="#F6F6F6"/>
<path d="M55.2528 36.3982C55.263 37.0164 55.263 37.5151 55.263 38.0807C53.3934 38.0807 51.6297 38.0807 49.7768 38.0807C49.7768 37.4577 49.7768 36.8448 49.7768 35.9649C51.6023 36.0697 53.4225 36.1742 55.2528 36.3982Z" fill="#F6F6F6"/>
<path d="M39.3707 43.7899C39.8254 43.7881 40.1585 43.7881 40.5729 43.7881C40.5729 44.4922 40.5729 45.106 40.5729 45.8096C38.7965 45.8096 37.0294 45.8096 35.1692 45.8096C35.1692 45.1981 35.1692 44.5528 35.1692 43.7918C36.5444 43.7918 37.8967 43.7918 39.3707 43.7899Z" fill="#F4F4F4"/>
<path d="M40.6509 41.1846C40.4347 41.5301 40.2285 41.949 40.0077 41.9568C38.4038 42.0134 36.797 41.9872 35.135 41.9872C35.135 41.2664 35.135 40.6529 35.135 39.9679C36.9407 39.9679 38.7067 39.9679 40.5824 39.9679C40.6063 40.3342 40.6302 40.7009 40.6509 41.1846Z" fill="#F6F6F6"/>
<path d="M72.4542 45.8936C72.0995 45.2725 71.872 44.6523 71.5833 43.8654C73.6643 43.8654 75.3938 43.8654 77.2118 43.8654C77.2118 44.4774 77.2118 45.0934 77.2118 45.8946C75.695 45.8946 74.1382 45.8946 72.4542 45.8936Z" fill="#F7F7F7"/>
<path d="M81.3044 51.5229C82.5202 51.5232 83.6226 51.5232 85.0257 51.5232C84.6331 52.3589 84.4787 53.3643 83.986 53.5738C83.2897 53.8698 82.2435 53.785 81.5461 53.4492C81.199 53.2821 81.2952 52.1941 81.3044 51.5229Z" fill="#E4E4E4"/>
<path d="M82.1993 55.6495C82.6407 55.5257 83.0539 55.4935 83.6902 55.4439C83.4407 56.2487 83.24 56.8957 83.0394 57.5428C82.9394 57.5541 82.8394 57.5654 82.7394 57.5768C82.55 56.9649 82.3606 56.3531 82.1993 55.6495Z" fill="#E4E4E4"/>
<path d="M115.714 115.458C115.082 115.627 114.451 115.942 113.819 115.943C96.5839 115.969 79.3492 115.964 62.1144 115.964C47.1407 115.964 32.167 115.965 17.1932 115.964C16.1483 115.964 15.1008 115.992 14.0601 115.922C13.8038 115.905 13.4401 115.603 13.3521 115.352C13.1731 114.843 13.0719 114.279 13.0715 113.738C13.0576 98.167 13.0528 82.596 13.0839 67.0251C13.0853 66.299 13.3687 65.5464 13.6661 64.8701C13.7282 64.7287 14.4354 64.8471 14.841 64.8881C15.1525 64.9196 15.4799 65.1233 15.7602 65.0633C16.2812 64.9517 16.7728 64.5367 17.2769 64.5363C49.4 64.5099 81.5232 64.509 113.646 64.5307C114.518 64.5313 115.673 64.1874 115.911 65.7652C115.719 66.454 115.474 66.9588 115.473 67.4639C115.452 82.1964 115.45 96.9289 115.467 111.661C115.469 112.927 115.628 114.193 115.714 115.458ZM54.1548 94.3693C54.1548 94.3693 54.159 94.3452 54.3358 94.3214C54.37 94.1587 54.4043 93.9961 54.4553 93.7492C54.4553 93.7492 54.517 93.6895 54.701 93.6627C55.5457 92.3361 56.072 90.9406 55.6254 89.1742C55.6553 89.0706 55.6853 88.9669 55.8778 88.7622C55.92 86.6747 55.9676 84.5873 55.9905 82.4996C55.9917 82.3828 55.7899 82.2638 55.6152 81.9719C55.6106 81.7861 55.606 81.6003 55.7256 81.2595C55.6742 80.4916 56.2497 79.5452 55.0343 78.9444C54.9881 78.7903 54.9419 78.6362 54.9456 78.3319C54.8799 78.2566 54.8141 78.1813 54.7851 78.0846C54.7851 78.0846 54.7505 78.1097 54.7779 77.914C54.8042 77.1107 54.461 76.6096 53.5332 76.4404C53.5332 76.4404 53.4796 76.3361 53.4395 76.1897C53.3513 76.1505 53.2631 76.1113 53.0731 76.0415C53.0066 76.0096 52.9564 75.9609 52.8902 75.7255C52.6831 75.6495 52.476 75.5736 52.0989 75.4688C51.8937 75.3659 51.6886 75.2629 51.4205 74.9854C48.0766 74.101 44.6951 74.5342 41.3216 74.7019C41.2939 74.7033 41.2692 74.7643 41.1862 75.0259C41.1761 82.0069 41.1622 88.9879 41.1691 95.9689C41.1694 96.272 41.3608 96.5749 41.5093 96.9603C41.5853 96.935 41.6613 96.9098 41.9732 96.8483C44.6207 96.8345 47.2682 96.8207 50.0471 96.9277C51.1096 96.7538 52.2803 96.8202 52.9125 95.6461C52.9125 95.6461 52.9188 95.6271 53.0518 95.7193C53.3341 95.3543 53.6163 94.9894 53.9192 94.6117C53.9192 94.6117 53.9254 94.5883 54.0603 94.6092C54.0841 94.532 54.108 94.4548 54.1548 94.3693ZM71.7705 94.6597C73.0299 92.9658 73.1857 91.0262 72.8964 89.0442C72.6143 87.112 71.3661 85.8997 69.4457 85.266C69.714 85.0689 69.8129 84.9906 69.9173 84.9204C72.058 83.4814 72.7776 81.5 72.1894 78.6614C71.7592 76.5852 70.3851 75.1545 67.8669 74.9572C64.8295 74.7192 61.7592 74.9009 58.6235 74.9009C58.6235 82.1681 58.6235 89.4313 58.6235 96.7157C61.8325 96.7157 64.9886 96.891 68.1078 96.6283C69.3318 96.5252 70.4732 95.4413 71.7705 94.6597ZM87.7486 78.8477C87.1125 76.697 85.6308 75.4475 83.4602 75.1768C82.0832 75.0051 80.6373 74.9678 79.2736 75.188C75.8246 75.7449 74.019 78.5579 74.7355 82.0738C76.0655 82.0738 77.4086 82.0738 78.6899 82.0738C78.9283 81.0073 79.0745 79.9945 79.3906 79.0378C79.7238 78.0293 80.632 77.8044 81.5776 77.8743C82.5299 77.9446 83.1669 78.4767 83.3297 79.4472C83.6857 81.5707 83.4232 83.5214 81.7247 85.0715C80.5918 86.1054 79.4554 87.1387 78.3765 88.2276C76.06 90.5657 74.4919 93.2495 74.6085 96.756C79.1287 96.756 83.5717 96.756 88.0477 96.756C88.0477 95.6205 88.0477 94.5806 88.0477 93.3983C85.3143 93.3983 82.6607 93.3983 79.5925 93.3983C80.4669 92.249 81.0507 91.3216 81.7927 90.5455C82.8211 89.4699 83.9686 88.5083 85.0648 87.4976C87.5618 85.1954 88.4847 82.3852 87.7486 78.8477Z" fill="#02992D"/>
<path d="M115.787 115.393C115.628 114.193 115.469 112.927 115.467 111.661C115.45 96.9289 115.452 82.1964 115.473 67.4639C115.474 66.9588 115.719 66.454 115.911 65.869C116.056 66.2313 116.213 66.6737 116.213 67.1162C116.226 82.5265 116.228 97.9368 116.208 113.347C116.207 114.007 115.982 114.668 115.787 115.393Z" fill="#089725"/>
<path d="M71.7113 94.7319C70.4732 95.4413 69.3318 96.5252 68.1079 96.6283C64.9886 96.891 61.8325 96.7157 58.6235 96.7157C58.6235 89.4313 58.6235 82.1681 58.6235 74.9009C61.7592 74.9009 64.8295 74.7192 67.8669 74.9572C70.3851 75.1545 71.7592 76.5852 72.1894 78.6614C72.7776 81.5 72.058 83.4815 69.9173 84.9204C69.8129 84.9906 69.714 85.0689 69.4457 85.266C71.3661 85.8997 72.6143 87.1121 72.8964 89.0442C73.1857 91.0263 73.0299 92.9658 71.7113 94.7319ZM67.3361 87.639C65.9767 87.3274 64.6174 87.0159 63.1133 86.6711C63.1133 89.2198 63.1133 91.3601 63.1133 93.4855C65.2773 93.88 67.1988 93.3976 67.8629 92.3284C68.6354 91.0846 68.4724 89.145 67.3361 87.639ZM66.1547 78.2479C65.1622 78.1665 64.1696 78.0851 63.1391 78.0006C63.1391 80.079 63.1391 81.9559 63.1391 83.9731C64.0488 83.8942 64.8508 83.8702 65.6369 83.7458C66.785 83.5642 67.5903 82.9484 67.7954 81.735C68.0811 80.0441 67.6385 79.0053 66.1547 78.2479Z" fill="#F7FDF8"/>
<path d="M49.9157 96.8069C47.2682 96.8207 44.6207 96.8345 41.7874 96.8356C41.5555 96.8412 41.5093 96.8596 41.4632 96.8779C41.3608 96.5749 41.1694 96.272 41.1691 95.9689C41.1622 88.9879 41.1761 82.0069 41.3324 74.9181C44.8136 74.9269 48.1485 75.0435 51.4834 75.16C51.6886 75.263 51.8937 75.3659 52.2295 75.5483C52.5476 75.7169 52.7351 75.8061 52.9226 75.8953C52.9564 75.9609 53.0066 76.0096 53.1472 76.127C53.3073 76.2537 53.3935 76.2949 53.4796 76.3361C53.4796 76.3361 53.5332 76.4404 53.5964 76.5542C54.0232 77.1485 54.3868 77.6291 54.7505 78.1097C54.7505 78.1097 54.7851 78.0846 54.7649 78.1668C54.795 78.3267 54.8454 78.4043 54.8957 78.482C54.9419 78.6362 54.9881 78.7903 55.06 79.1148C55.2575 79.995 55.4295 80.7047 55.6014 81.4145C55.606 81.6003 55.6106 81.7861 55.6307 82.1688C55.6693 84.5315 55.6922 86.6974 55.7152 88.8633C55.6853 88.9669 55.6554 89.0706 55.5925 89.3554C55.212 90.9209 54.8645 92.3052 54.517 93.6896C54.517 93.6896 54.4553 93.7492 54.3819 93.8331C54.2587 94.0598 54.2089 94.2025 54.159 94.3452C54.159 94.3452 54.1548 94.3693 54.0918 94.3887C53.9628 94.4501 53.9284 94.5102 53.9254 94.5883C53.9254 94.5883 53.9192 94.6118 53.8361 94.6482C53.4749 94.9988 53.1969 95.3129 52.9188 95.6271C52.9188 95.6271 52.9125 95.6461 52.8125 95.6636C51.7802 96.0563 50.8479 96.4316 49.9157 96.8069ZM45.6469 90.7413C45.6469 91.6661 45.6469 92.591 45.6469 93.4862C49.3388 94.0944 50.9498 92.9334 51.1455 89.4428C51.2812 87.021 51.2904 84.5794 51.1535 82.1582C50.9579 78.699 49.1652 77.4655 45.645 78.253C45.645 82.3158 45.645 86.4019 45.6469 90.7413Z" fill="#F8FDF9"/>
<path d="M87.769 78.9503C88.4847 82.3852 87.5618 85.1954 85.0648 87.4976C83.9686 88.5083 82.821 89.4699 81.7927 90.5455C81.0507 91.3216 80.4669 92.249 79.5925 93.3983C82.6607 93.3983 85.3143 93.3983 88.0477 93.3983C88.0477 94.5806 88.0477 95.6205 88.0477 96.756C83.5717 96.756 79.1287 96.756 74.6084 96.756C74.4919 93.2495 76.0599 90.5657 78.3765 88.2276C79.4554 87.1387 80.5918 86.1054 81.7246 85.0715C83.4232 83.5214 83.6857 81.5707 83.3296 79.4472C83.1669 78.4767 82.5298 77.9446 81.5776 77.8743C80.632 77.8044 79.7238 78.0293 79.3906 79.0378C79.0744 79.9945 78.9283 81.0073 78.6898 82.0738C77.4086 82.0738 76.0655 82.0738 74.7355 82.0738C74.019 78.5579 75.8246 75.7449 79.2736 75.188C80.6373 74.9678 82.0831 75.0051 83.4602 75.1768C85.6308 75.4475 87.1124 76.697 87.769 78.9503Z" fill="#F4FCF6"/>
<path d="M51.452 75.0727C48.1485 75.0434 44.8136 74.9269 41.3609 74.8038C41.2692 74.7643 41.2939 74.7033 41.3216 74.7019C44.6951 74.5342 48.0766 74.101 51.452 75.0727Z" fill="#3FA359"/>
<path d="M55.7965 88.8127C55.6922 86.6974 55.6693 84.5315 55.6644 82.2557C55.7899 82.2638 55.9918 82.3828 55.9905 82.4996C55.9676 84.5873 55.92 86.6747 55.7965 88.8127Z" fill="#3FA359"/>
<path d="M54.609 93.6761C54.8645 92.3052 55.212 90.9209 55.5985 89.4368C56.072 90.9406 55.5457 92.3361 54.609 93.6761Z" fill="#3FA359"/>
<path d="M49.9814 96.8673C50.8479 96.4316 51.7802 96.0563 52.8025 95.6637C52.2803 96.8202 51.1096 96.7538 49.9814 96.8673Z" fill="#3FA359"/>
<path d="M55.6635 81.337C55.4295 80.7047 55.2575 79.995 55.0963 79.1867C56.2497 79.5452 55.6742 80.4916 55.6635 81.337Z" fill="#3FA359"/>
<path d="M54.7642 78.0118C54.3868 77.6291 54.0232 77.1485 53.644 76.5884C54.461 76.6096 54.8042 77.1107 54.7642 78.0118Z" fill="#3FA359"/>
<path d="M52.9853 95.6732C53.1969 95.3129 53.475 94.9988 53.8258 94.6545C53.6163 94.9894 53.3341 95.3543 52.9853 95.6732Z" fill="#3FA359"/>
<path d="M52.9064 75.8104C52.7351 75.8061 52.5476 75.7169 52.3145 75.5627C52.476 75.5736 52.6831 75.6495 52.9064 75.8104Z" fill="#3FA359"/>
<path d="M54.2474 94.3333C54.2089 94.2025 54.2587 94.0598 54.3736 93.8752C54.4043 93.9961 54.37 94.1587 54.2474 94.3333Z" fill="#3FA359"/>
<path d="M54.9207 78.407C54.8454 78.4043 54.795 78.3267 54.7465 78.1775C54.8141 78.1813 54.8799 78.2566 54.9207 78.407Z" fill="#3FA359"/>
<path d="M53.9928 94.5988C53.9284 94.5101 53.9628 94.45 54.0803 94.3928C54.108 94.4548 54.0841 94.532 53.9928 94.5988Z" fill="#3FA359"/>
<path d="M41.4863 96.9191C41.5093 96.8595 41.5555 96.8412 41.6695 96.8537C41.6613 96.9098 41.5853 96.935 41.4863 96.9191Z" fill="#3FA359"/>
<path d="M53.4596 76.2629C53.3935 76.2949 53.3073 76.2537 53.1981 76.1422C53.2631 76.1113 53.3513 76.1505 53.4596 76.2629Z" fill="#3FA359"/>
<path d="M67.4081 87.7066C68.4724 89.145 68.6354 91.0846 67.8629 92.3284C67.1988 93.3976 65.2773 93.88 63.1133 93.4855C63.1133 91.3601 63.1133 89.2198 63.1133 86.6711C64.6174 87.0159 65.9767 87.3274 67.4081 87.7066Z" fill="#119A35"/>
<path d="M66.2556 78.2774C67.6385 79.0053 68.0811 80.0441 67.7954 81.735C67.5903 82.9484 66.785 83.5642 65.6369 83.7458C64.8508 83.8701 64.0488 83.8942 63.1391 83.9731C63.1391 81.9559 63.1391 80.079 63.1391 78.0005C64.1696 78.0851 65.1622 78.1665 66.2556 78.2774Z" fill="#119A37"/>
<path d="M45.6459 90.6146C45.645 86.4019 45.645 82.3158 45.645 78.253C49.1652 77.4655 50.9579 78.699 51.1535 82.1582C51.2904 84.5794 51.2812 87.021 51.1455 89.4427C50.9498 92.9334 49.3388 94.0944 45.6469 93.4861C45.6469 92.591 45.6469 91.6661 45.6459 90.6146Z" fill="#0C9A33"/>
</svg>
