<svg width="92" height="92" viewBox="0 0 92 92" fill="none" xmlns="http://www.w3.org/2000/svg">
<g clip-path="url(#clip0_105_663)">
<path d="M0.306641 67.16C0.306641 65.6199 0.306641 64.0798 0.415394 62.3486C0.656835 60.9629 0.789523 59.7683 1.03262 58.5795C1.68245 58.9396 2.30193 59.2135 2.74956 59.6598C12.9525 69.8322 23.1393 80.0207 33.3146 90.2207C33.7311 90.6383 34.0054 91.1977 34.2023 91.6915C31.5995 91.692 29.1403 91.6921 26.6599 91.5892C26.336 91.0854 26.0756 90.6422 25.7241 90.29C17.9545 82.5041 10.1758 74.7271 2.39336 66.9539C2.05639 66.6174 1.66739 66.3329 1.12892 65.8771C1.02829 66.4917 0.973709 66.825 0.842916 67.1584C0.7667 67.1585 0.614271 67.1595 0.537363 67.1596C0.409184 67.1598 0.357912 67.1599 0.306641 67.16Z" fill="#963DF6"/>
<path d="M0.919132 67.1583C0.973709 66.825 1.02829 66.4917 1.12892 65.8771C1.66739 66.3329 2.05639 66.6174 2.39336 66.9539C10.1758 74.7271 17.9545 82.5041 25.7241 90.29C26.0756 90.6422 26.3359 91.0854 26.5176 91.5897C25.7845 91.6935 25.1598 91.6159 24.5639 91.7139C23.8256 91.8354 23.1113 92.1025 22.3866 92.3067C19.9269 92.3067 17.4672 92.3067 14.9112 92.1984C15.8553 91.8671 16.8955 91.644 18.4661 91.3072C12.6522 85.5015 7.13455 79.9074 1.2856 74.5576C0.980944 75.3663 1.01881 76.0181 0.898557 76.6392C0.794347 77.1775 0.510878 77.6811 0.306641 78.2C0.306641 75.638 0.306641 73.0761 0.414254 70.3229C0.654289 69.1405 0.786711 68.1494 0.919132 67.1583Z" fill="#9043F8"/>
<path d="M0.306641 78.3227C0.510878 77.6811 0.794347 77.1775 0.898557 76.6392C1.01881 76.018 0.980944 75.3663 1.2856 74.5576C7.13456 79.9074 12.6522 85.5014 18.4661 91.3072C16.8956 91.644 15.8553 91.8671 14.7675 92.1984C14.294 92.3067 13.8681 92.3067 13.2808 92.2748C13.0262 92.2009 12.9463 92.2221 12.88 92.3067C12.052 92.3067 11.224 92.3067 10.2567 92.1906C9.86931 91.5456 9.73848 90.903 9.35399 90.5062C6.99339 88.0701 4.60193 85.662 2.15285 83.3154C1.69512 82.8768 0.929938 82.7591 0.306641 82.4933C0.306641 81.6653 0.306641 80.8373 0.338316 79.8377C0.411384 79.5733 0.390267 79.4935 0.306641 79.4267C0.306641 79.0995 0.306641 78.7724 0.306641 78.3227Z" fill="#8A48FB"/>
<path d="M0.306641 82.6371C0.929937 82.7591 1.69512 82.8768 2.15285 83.3154C4.60193 85.662 6.99339 88.0701 9.35399 90.5062C9.73848 90.903 9.86931 91.5456 10.1187 92.1906C6.87139 92.3067 3.62281 92.3067 0.306641 92.3067C0.306641 89.1317 0.306641 85.9562 0.306641 82.6371Z" fill="#854EFD"/>
<path d="M81.9232 10.7463C81.1558 11.5399 80.3885 12.3335 79.4558 13.1037C78.944 12.8721 78.5407 12.722 78.2597 12.447C74.3435 8.61373 70.444 4.76334 66.5408 0.815368C66.543 0.57797 66.5448 0.442321 66.5467 0.306671C68.0868 0.306671 69.6269 0.306671 71.3117 0.422735C71.7428 1.10645 71.9129 1.78663 72.335 2.22306C74.6719 4.63921 77.0328 7.03545 79.472 9.34723C80.1353 9.97585 81.0979 10.2886 81.9232 10.7463Z" fill="#DC397C"/>
<path d="M81.9865 10.7193C81.0979 10.2886 80.1353 9.97585 79.472 9.34723C77.0328 7.03544 74.6719 4.6392 72.335 2.22305C71.9129 1.78662 71.7428 1.10644 71.4548 0.422731C71.6834 0.306668 71.9134 0.306668 72.3011 0.365017C72.5223 0.497092 72.5954 0.559529 72.7813 0.681476C73.5363 0.808452 74.1944 0.826245 74.8377 0.932855C75.3603 1.01945 76.0241 1.05464 76.3519 1.38436C78.3509 3.39499 80.3055 5.45316 82.1947 7.56716C82.6587 8.08636 82.8242 8.87236 83.1269 9.5357C83.1269 9.5357 83.1136 9.51341 83.0354 9.53049C82.8035 9.63502 82.6499 9.72247 82.4342 9.8785C82.3152 10.1207 82.2582 10.2943 82.2013 10.4679C82.1796 10.5621 82.1291 10.6369 81.9865 10.7193Z" fill="#DE3C75"/>
<path d="M83.217 9.48714C82.8241 8.87236 82.6587 8.08637 82.1947 7.56716C80.3055 5.45316 78.3509 3.39499 76.3519 1.38437C76.024 1.05464 75.3603 1.01945 74.8377 0.932858C74.1944 0.826248 73.5363 0.808455 72.7818 0.605496C72.6791 0.458714 72.68 0.306671 72.68 0.306671C75.0375 0.306671 77.395 0.306671 79.8984 0.421318C80.6426 1.2131 81.1922 1.94253 81.8496 2.55663C83.2744 3.88778 84.7544 5.15994 86.2119 6.45622C85.2436 7.45034 84.2754 8.44446 83.217 9.48714Z" fill="#E03F6E"/>
<path d="M86.2758 6.42831C84.7544 5.15993 83.2745 3.88778 81.8496 2.55663C81.1923 1.94253 80.6427 1.2131 80.0421 0.421312C80.1763 0.306664 80.3126 0.306664 80.5512 0.384236C80.6538 0.513522 80.6541 0.565236 80.7591 0.687681C82.4288 0.813094 83.9937 0.867776 85.5605 1.03818C85.8809 1.6665 86.2164 2.16946 86.5138 2.69403C86.9322 3.43226 87.3224 4.18652 87.7246 4.93393C87.7246 4.93393 87.713 4.91265 87.6342 4.92921C87.402 5.03398 87.2486 5.12219 87.0417 5.26984C86.9642 5.43136 86.9402 5.53343 86.9162 5.6355C86.9162 5.6355 86.8624 5.62586 86.7884 5.64967C86.6411 5.84034 86.5676 6.00719 86.4942 6.17404C86.4715 6.26912 86.42 6.34458 86.2758 6.42831Z" fill="#E14167"/>
<path d="M0.613307 0.306671C4.81083 0.306671 9.00834 0.306671 13.3476 0.407947C13.489 0.644283 13.4887 0.779343 13.4902 0.916745C13.4919 0.919087 13.4878 0.917555 13.3454 0.916704C11.7664 0.918387 10.3297 0.920921 8.74947 0.922236C6.75943 0.922427 4.91298 0.923835 2.93231 0.924256C1.34815 0.702933 0.715327 1.29178 0.90951 2.77392C0.974831 3.2725 0.922061 3.78655 0.922164 4.43668C0.919161 6.11986 0.917258 7.6599 0.813903 9.19962C0.57718 9.19953 0.44191 9.19977 0.306641 9.2C0.306641 8.87289 0.306641 8.54578 0.346233 8.06622C0.432512 7.80868 0.406118 7.72631 0.306641 7.66667C0.306641 5.41137 0.306641 3.15606 0.368091 0.717155C0.503802 0.468459 0.565057 0.392832 0.613307 0.306671Z" fill="#CE18F2"/>
<path d="M22.5247 92.3067C23.1113 92.1025 23.8257 91.8354 24.564 91.7139C25.1598 91.6159 25.7846 91.6935 26.5388 91.6927C29.1403 91.6921 31.5995 91.692 34.3462 91.6921C37.2968 91.6934 39.96 91.6945 42.6238 91.7974C42.6252 92.0351 42.626 92.1709 42.6267 92.3067C40.9845 92.3067 39.3423 92.3067 37.481 92.2437C36.9034 92.2228 36.545 92.2647 36.1867 92.3067C32.7047 92.3067 29.2227 92.3067 25.5637 92.2739C25.2922 92.1977 25.2122 92.2195 25.1467 92.3067C24.3187 92.3067 23.4907 92.3067 22.5247 92.3067Z" fill="#9F40FF"/>
<path d="M32.5067 0.306671C33.6391 0.306671 34.7716 0.306671 36.0891 0.366012C36.3408 0.499037 36.4181 0.559068 36.5628 0.563793C36.6915 0.460209 36.7516 0.388386 36.8 0.306671C39.7708 0.306671 42.7417 0.306671 45.9321 0.371424C46.4078 0.494508 46.664 0.552838 46.9799 0.569608C47.1157 0.465827 47.178 0.392034 47.2267 0.306671C47.6526 0.306671 48.0785 0.306671 48.6313 0.40836C48.7588 0.645637 48.7593 0.781226 48.6372 0.91757C48.1876 0.919816 47.8606 0.921305 47.3904 0.92199C45.7078 0.921865 44.1683 0.922546 42.4857 0.922462C40.9053 0.921553 39.4681 0.92141 37.887 0.920303C36.0032 0.918599 34.2631 0.917861 32.5207 0.81537C32.5144 0.577969 32.5105 0.44232 32.5067 0.306671Z" fill="#E22CAD"/>
<path d="M42.7704 92.3067C42.6259 92.1709 42.6252 92.0351 42.7394 91.7966C43.0851 91.6928 43.316 91.6916 43.6906 91.6914C46.8046 91.6913 49.775 91.6902 52.8796 91.6899C53.6406 91.6928 54.2672 91.6948 54.8938 91.7984C54.8936 92.0356 54.8935 92.1711 54.8933 92.3067C50.9002 92.3067 46.9072 92.3067 42.7704 92.3067Z" fill="#AD34FF"/>
<path d="M0.306641 49.9867C0.306641 45.9936 0.306641 42.0005 0.408288 37.8635C0.645465 37.7195 0.780995 37.7195 0.917583 37.8558C0.920499 38.7194 0.922357 39.4468 0.923035 40.3178C0.922197 43.3297 0.92254 46.1981 0.922187 49.1819C0.920275 49.5283 0.919058 49.7592 0.815974 49.9895C0.578286 49.9881 0.442463 49.9874 0.306641 49.9867Z" fill="#AD34FF"/>
<path d="M0.306641 50.1301C0.442463 49.9874 0.578286 49.9881 0.816452 50.1328C0.919934 53.0425 0.921073 55.8081 0.922211 58.5737C0.789523 59.7683 0.656835 60.9629 0.415394 62.2054C0.306641 60.1002 0.306641 57.9471 0.342557 55.6187C0.422468 55.3442 0.398524 55.263 0.306641 55.2C0.306641 53.5578 0.306641 51.9156 0.306641 50.1301Z" fill="#9F40FF"/>
<path d="M0.306641 29.44C0.306641 25.5492 0.306641 21.6583 0.408274 17.6237C0.645416 17.4805 0.780926 17.4809 0.917461 17.6249C0.920311 19.8194 0.922136 21.8703 0.922824 24.0645C0.919842 25.9516 0.917996 27.6954 0.814566 29.4392C0.577534 29.4395 0.442087 29.4398 0.306641 29.44Z" fill="#BD26F9"/>
<path d="M75.1333 92.3066C71.3447 92.3066 67.5561 92.3066 63.6239 92.2051C63.4805 91.9681 63.4805 91.8326 63.6239 91.6961C65.4089 91.6931 67.0505 91.6912 68.8359 91.6902C71.0304 91.6931 73.0812 91.6949 75.1323 91.7985C75.1329 92.0356 75.1331 92.1711 75.1333 92.3066Z" fill="#BD26F9"/>
<path d="M85.5585 0.922465C83.9937 0.867783 82.4288 0.813101 80.8181 0.644153C80.8473 0.466075 80.91 0.39167 80.96 0.306671C81.3859 0.306671 81.8119 0.306671 82.408 0.366113C82.6426 0.499947 82.7171 0.562083 82.8607 0.569528C82.9942 0.464033 83.0565 0.390559 83.1067 0.306671C85.8731 0.306671 88.6395 0.306671 91.5494 0.41259C91.6962 0.6602 91.6995 0.801891 91.7028 0.943582C91.6804 1.04294 91.6275 1.12196 91.3589 1.15924C89.3019 1.06604 87.4302 0.994251 85.5585 0.922465Z" fill="#F04867"/>
<path d="M32.363 0.306671C32.5105 0.44232 32.5144 0.577969 32.4393 0.816311C32.3061 0.919684 32.252 0.920364 32.0543 0.920171C29.759 0.920636 27.6073 0.921972 25.313 0.922561C23.8339 0.920391 22.4975 0.918971 21.1607 0.815737C21.1602 0.578173 21.1601 0.442422 21.16 0.306671C22.4961 0.306671 23.8322 0.306671 25.3875 0.371426C25.8651 0.492964 26.1234 0.549747 26.4396 0.565099C26.5712 0.462253 26.6321 0.389921 26.68 0.306671C28.5265 0.306671 30.3729 0.306671 32.363 0.306671Z" fill="#DB20CB"/>
<path d="M66.4125 0.306671C66.5448 0.442321 66.543 0.57797 66.3994 0.816018C65.0248 0.919784 63.792 0.921151 62.4162 0.921931C60.8362 0.921706 59.399 0.922067 57.8589 0.92164C57.6186 0.919601 57.4813 0.91835 57.3445 0.842248C57.3452 0.767396 57.3464 0.617692 57.3471 0.539937C57.3474 0.410346 57.347 0.358508 57.3467 0.306671C59.3975 0.306671 61.4484 0.306671 63.6852 0.365589C63.9345 0.498466 64.0079 0.560728 64.1512 0.569615C64.2877 0.465748 64.3506 0.391992 64.4 0.306671C65.0261 0.306671 65.6522 0.306671 66.4125 0.306671Z" fill="#E83890"/>
<path d="M63.4806 91.6972C63.4806 91.8326 63.4805 91.9681 63.4803 92.2051C60.7136 92.3067 57.9472 92.3067 55.0371 92.3067C54.8935 92.1711 54.8937 92.0356 55.0373 91.7974C56.9248 91.693 58.6687 91.6912 60.552 91.6906C61.6211 91.6936 62.5508 91.6954 63.4806 91.6972Z" fill="#B52DFD"/>
<path d="M75.2771 92.3067C75.1331 92.1711 75.1329 92.0356 75.2552 91.7973C75.7052 91.6928 76.0327 91.6913 76.5038 91.6908C78.9028 91.6912 81.158 91.6905 83.4133 91.6915C83.4134 91.6932 83.4134 91.6978 83.4137 91.7993C83.4138 92.0361 83.4136 92.1714 83.4134 92.3067C80.7492 92.3067 78.085 92.3067 75.2771 92.3067Z" fill="#C51FF5"/>
<path d="M0.306641 29.5837C0.442087 29.4398 0.577534 29.4395 0.815739 29.5773C0.920304 30.5438 0.92211 31.3723 0.923077 32.3442C0.920333 34.2316 0.918429 35.9756 0.916525 37.7195C0.780995 37.7195 0.645465 37.7195 0.408288 37.7198C0.306641 35.0558 0.306641 32.3916 0.306641 29.5837Z" fill="#B52DFD"/>
<path d="M83.536 92.3066C83.4136 92.1713 83.4138 92.0361 83.5571 91.7981C85.3422 91.6937 86.9843 91.6919 88.7545 91.6909C89.5113 91.4871 90.1401 91.2824 90.8539 91.0763C90.9957 91.073 91.0524 91.0712 91.1091 91.0694C91.2847 91.2141 91.4604 91.3588 91.6665 91.6903C91.6957 92.0203 91.6945 92.1635 91.6933 92.3066C89.949 92.3066 88.2047 92.3066 86.2324 92.2396C85.651 92.1165 85.2976 92.0604 84.8851 92.0457C84.7507 92.149 84.6887 92.2222 84.64 92.3066C84.3129 92.3066 83.9858 92.3066 83.536 92.3066Z" fill="#CE18F2"/>
<path d="M0.916436 17.4814C0.780926 17.4809 0.645416 17.4805 0.408274 17.48C0.306641 14.8158 0.306641 12.1516 0.306641 9.34373C0.44191 9.19977 0.57718 9.19954 0.816255 9.19967C0.92006 9.20004 0.92354 9.20006 0.922438 9.34375C0.922078 11.7428 0.92282 13.9982 0.922816 16.3763C0.920192 16.8265 0.918314 17.154 0.916436 17.4814Z" fill="#C51FF5"/>
<path d="M57.3465 0.61769C57.3465 0.61769 57.3452 0.767394 57.2019 0.842839C55.6212 0.919739 54.1838 0.921193 52.6044 0.922044C51.2282 0.919898 49.994 0.918356 48.7598 0.916814C48.7593 0.781225 48.7588 0.645636 48.7591 0.408358C51.0153 0.306669 53.2706 0.306669 55.7116 0.365359C55.9603 0.497756 56.0331 0.560036 56.2387 0.611631C56.69 0.614147 57.0182 0.615919 57.3465 0.61769Z" fill="#E4329F"/>
<path d="M21.0171 0.306671C21.1601 0.442422 21.1602 0.578173 21.0291 0.816347C20.3719 0.920121 19.8458 0.921471 19.1762 0.921772C17.1845 0.918616 15.3365 0.91651 13.4885 0.914403C13.4887 0.779343 13.489 0.644283 13.4913 0.407947C14.2203 0.306671 14.9473 0.306671 15.8531 0.365386C16.0958 0.497761 16.1694 0.560146 16.3121 0.569393C16.4478 0.46525 16.5105 0.39163 16.56 0.306671C17.998 0.306671 19.4361 0.306671 21.0171 0.306671Z" fill="#D819DC"/>
<path d="M0.842938 67.1584C0.786732 68.1494 0.65431 69.1405 0.414276 70.1791C0.306663 69.3987 0.306663 68.5707 0.36713 67.5634C0.501174 67.3186 0.563406 67.2438 0.614293 67.1595C0.614293 67.1595 0.766722 67.1585 0.842938 67.1584Z" fill="#9F40FF"/>
<path d="M57.3471 0.539937C57.0182 0.61592 56.6899 0.614149 56.2399 0.535597C56.118 0.458817 56.12 0.306671 56.12 0.306671C56.4471 0.306671 56.7743 0.306671 57.2241 0.306671C57.347 0.358508 57.3474 0.410346 57.3471 0.539937Z" fill="#D9338B"/>
<path d="M91.8466 92.3067C91.6945 92.1635 91.6957 92.0203 91.7017 91.7693C91.8395 91.6743 91.9727 91.687 92.2062 91.6965C92.2044 91.8978 92.1022 92.1022 91.8466 92.3067Z" fill="#C215E3"/>
<path d="M91.803 0.933457C91.6995 0.801888 91.6962 0.660197 91.6931 0.412587C91.8978 0.408891 92.1022 0.511113 92.3067 0.766668C92.1722 0.921113 92.0378 0.922224 91.803 0.933457Z" fill="#E44560"/>
<path d="M46.9201 0.611161C46.664 0.552831 46.4078 0.494501 46.0758 0.371418C46.23 0.306665 46.46 0.306665 46.805 0.382789C46.92 0.458913 46.9201 0.611161 46.9201 0.611161Z" fill="#D429A4"/>
<path d="M26.3818 0.606529C26.1234 0.549746 25.8651 0.492964 25.53 0.371425C25.6833 0.30667 25.9133 0.30667 26.2602 0.381642C26.377 0.456615 26.3818 0.606529 26.3818 0.606529Z" fill="#CC1BC9"/>
<path d="M64.3233 0.306671C64.3506 0.391992 64.2877 0.465748 64.1518 0.493473C64.0924 0.459009 64.0933 0.306671 64.0933 0.306671C64.0933 0.306671 64.2467 0.306671 64.3233 0.306671Z" fill="#DC397C"/>
<path d="M0.460003 0.306671C0.565087 0.392832 0.503831 0.468459 0.36812 0.573444C0.30667 0.511116 0.30667 0.408893 0.460003 0.306671Z" fill="#C612E1"/>
<path d="M16.2525 0.611255C16.1694 0.560147 16.0958 0.497763 15.9893 0.365388C15.9467 0.306673 16.1 0.306673 16.176 0.382817C16.2519 0.458961 16.2525 0.611255 16.2525 0.611255Z" fill="#C612E1"/>
<path d="M16.3121 0.569393C16.2525 0.611254 16.2519 0.45896 16.2526 0.382815C16.2533 0.306671 16.4067 0.306671 16.4833 0.306671C16.5105 0.39163 16.4478 0.46525 16.3121 0.569393Z" fill="#CC1BC9"/>
<path d="M26.4396 0.565099C26.3818 0.60653 26.3771 0.456616 26.3752 0.381643C26.3733 0.306671 26.5267 0.306671 26.6033 0.306671C26.6321 0.389921 26.5712 0.462253 26.4396 0.565099Z" fill="#D123B3"/>
<path d="M36.5061 0.605441C36.4182 0.559063 36.3408 0.499032 36.2304 0.366007C36.1867 0.306666 36.34 0.306666 36.4194 0.381382C36.4987 0.456097 36.5061 0.605441 36.5061 0.605441Z" fill="#D123B3"/>
<path d="M36.5628 0.563793C36.5061 0.605446 36.4987 0.456102 36.496 0.381387C36.4933 0.306671 36.6467 0.306671 36.7233 0.306671C36.7517 0.388386 36.6915 0.460209 36.5628 0.563793Z" fill="#D429A4"/>
<path d="M46.9799 0.569608C46.9201 0.611168 46.92 0.45892 46.92 0.382795C46.92 0.306671 47.0733 0.306671 47.15 0.306671C47.178 0.392034 47.1156 0.465827 46.9799 0.569608Z" fill="#D62D9B"/>
<path d="M56.0433 0.306671C56.12 0.306671 56.118 0.458817 56.1168 0.534853C56.0331 0.560038 55.9603 0.497758 55.8553 0.36536C55.8133 0.306671 55.9667 0.306671 56.0433 0.306671Z" fill="#D62D9B"/>
<path d="M64.0167 0.306671C64.0934 0.306671 64.0924 0.459009 64.0918 0.535151C64.0079 0.560728 63.9345 0.498466 63.8289 0.365589C63.7867 0.306671 63.94 0.306671 64.0167 0.306671Z" fill="#D9338B"/>
<path d="M0.306641 55.2767C0.398524 55.263 0.422468 55.3442 0.342557 55.475C0.306641 55.5067 0.306641 55.3533 0.306641 55.2767Z" fill="#9043F8"/>
<path d="M72.6033 0.306671C72.68 0.306671 72.6791 0.458714 72.6786 0.534698C72.5953 0.559532 72.5223 0.497095 72.4161 0.365021C72.3733 0.306671 72.5267 0.306671 72.6033 0.306671Z" fill="#DC397C"/>
<path d="M80.8833 0.306671C80.91 0.39167 80.8473 0.466075 80.7132 0.573422C80.6541 0.565243 80.6538 0.513529 80.6534 0.384243C80.6533 0.306671 80.8067 0.306671 80.8833 0.306671Z" fill="#E03F6E"/>
<path d="M82.8019 0.611961C82.7171 0.562079 82.6426 0.499942 82.5358 0.366109C82.4933 0.306667 82.6467 0.306667 82.7236 0.382992C82.8004 0.459317 82.8019 0.611961 82.8019 0.611961Z" fill="#E03F6E"/>
<path d="M82.8607 0.569528C82.8019 0.611965 82.8004 0.459321 82.8002 0.382996C82.8 0.306671 82.9534 0.306671 83.03 0.306671C83.0566 0.390559 82.9942 0.464033 82.8607 0.569528Z" fill="#E44560"/>
<path d="M0.306641 79.5033C0.390266 79.4935 0.411383 79.5733 0.338316 79.6997C0.306641 79.7333 0.306641 79.58 0.306641 79.5033Z" fill="#854EFD"/>
<path d="M0.306641 7.74334C0.406118 7.72631 0.432512 7.80868 0.346233 7.94355C0.306641 7.97334 0.306641 7.82 0.306641 7.74334Z" fill="#B71FE7"/>
<path d="M0.537363 67.1596C0.563384 67.2438 0.501152 67.3186 0.367108 67.4254C0.306641 67.4667 0.306641 67.3133 0.306641 67.2367C0.357912 67.1599 0.409184 67.1598 0.537363 67.1596Z" fill="#9043F8"/>
<path d="M90.7688 91.0778C90.1401 91.2824 89.5113 91.4871 88.7335 91.5882C88.1721 90.9745 87.8019 90.4222 87.3411 89.9604C79.8105 82.412 72.2843 74.8592 64.7221 67.3427C61.1039 63.7462 57.3716 60.2644 53.761 56.6604C36.7365 39.6672 19.7383 22.6476 2.71784 5.65037C2.19219 5.12544 1.52465 4.7426 0.923269 4.29353C0.922065 3.78654 0.974835 3.27249 0.909513 2.77391C0.715331 1.29177 1.34815 0.702922 2.95347 1.02671C3.52165 1.64032 3.89229 2.1926 4.35347 2.65447C15.1484 13.4654 25.9237 24.2964 36.7732 35.0523C40.2626 38.5115 43.9528 41.7682 47.5511 45.1176C47.2419 45.5362 46.9327 45.9549 46.6412 46.58C46.8453 47.0832 46.984 47.4274 47.2251 47.6695C51.7492 52.2131 56.2805 56.7495 60.83 61.2676C61.1349 61.5703 61.5971 61.7147 61.9862 61.9327C62.3598 62.2751 62.7334 62.6175 63.1637 63.1512C63.5225 63.5865 63.8246 63.8304 64.1267 64.0744C64.1267 64.0744 64.105 64.0815 64.1234 64.1767C65.2612 65.3305 66.3806 66.3891 67.5 67.4477C67.5 67.4477 67.4785 67.4545 67.5039 67.5395C67.7262 67.7716 67.9229 67.9188 68.1197 68.066C72.0683 71.9834 76.0168 75.9009 80.0327 80.0055C80.2976 80.3416 80.4952 80.4906 80.6928 80.6396C81.0664 80.982 81.4399 81.3245 81.8695 81.8599C82.9458 83.0128 83.966 83.9728 84.9863 84.9327C85.3598 85.2751 85.7334 85.6175 86.1637 86.1512C86.5225 86.5865 86.8246 86.8304 87.1267 87.0744C87.1267 87.0744 87.1051 87.0815 87.1234 87.1767C88.2611 88.3306 89.3805 89.3892 90.4998 90.4479C90.4998 90.4479 90.478 90.4555 90.4927 90.5347C90.5946 90.7685 90.6817 90.9231 90.7688 91.0778Z" fill="#C215E3"/>
<path d="M47.6429 45.0705C43.9528 41.7682 40.2626 38.5115 36.7733 35.0523C25.9237 24.2964 15.1485 13.4654 4.3535 2.65447C3.89232 2.1926 3.52168 1.64032 3.08771 1.0277C4.91301 0.923828 6.75946 0.92242 8.75553 1.03247C9.29485 1.71846 9.60499 2.37218 10.0862 2.85563C17.3812 10.1849 24.6793 17.5112 32.0171 24.7976C37.5497 30.2916 43.1289 35.7388 48.7234 41.1698C49.198 41.6306 49.9447 41.811 50.5651 42.1217C49.6216 43.089 48.6782 44.0562 47.6429 45.0705Z" fill="#C612E1"/>
<path d="M19.3198 0.922812C19.8458 0.921462 20.3719 0.920112 21.0295 0.918152C22.4975 0.918962 23.8339 0.920382 25.3334 1.02531C25.7633 1.49378 25.9877 1.90127 26.3035 2.21752C36.4216 12.3505 46.5396 22.4835 56.6973 32.5766C57.2647 33.1404 58.17 33.3642 58.918 33.7463C57.6537 34.9715 56.3895 36.1967 54.9969 37.3355C54.4987 36.7724 54.1784 36.2449 53.751 35.8269C50.4027 32.5521 47.0055 29.3268 43.682 26.0272C41.697 24.0566 39.8466 21.9511 37.8839 19.9571C34.7737 16.7973 31.6376 13.6623 28.4784 10.5515C26.5575 8.65993 24.5148 6.88953 22.6371 4.95749C21.4278 3.7132 20.4186 2.27442 19.3198 0.922812Z" fill="#CC1BC9"/>
<path d="M19.1762 0.921762C20.4186 2.27442 21.4278 3.7132 22.6371 4.95749C24.5148 6.88953 26.5575 8.65993 28.4784 10.5515C31.6376 13.6623 34.7737 16.7973 37.8839 19.9571C39.8465 21.9511 41.697 24.0566 43.682 26.0272C47.0055 29.3268 50.4027 32.5521 53.751 35.8269C54.1784 36.2449 54.4987 36.7724 54.8916 37.3554C54.6715 37.8298 54.4285 38.1979 54.0328 38.6552C53.8129 38.8256 53.7458 38.9068 53.6786 38.9881C53.536 39.1615 53.3933 39.335 53.0508 39.5367C52.0225 39.1273 51.0258 38.8587 50.3904 38.2269C38.405 26.3094 26.46 14.3512 14.5203 2.3877C14.1035 1.97011 13.8288 1.4108 13.4879 0.917546C13.4879 0.917546 13.492 0.919077 13.4902 0.916735C15.3365 0.9165 17.1846 0.918606 19.1762 0.921762Z" fill="#CA17D2"/>
<path d="M59.0079 33.7003C58.1699 33.3642 57.2647 33.1404 56.6973 32.5766C46.5396 22.4835 36.4215 12.3505 26.3035 2.21753C25.9877 1.90128 25.7633 1.49379 25.476 1.02607C27.6073 0.921972 29.759 0.920635 32.0758 1.02308C32.5812 1.56516 32.879 2.04586 33.268 2.43553C42.2227 11.4064 51.1833 20.3715 60.1605 29.3199C60.6927 29.8504 61.3737 30.2316 61.9854 30.6823C61.0229 31.6729 60.0604 32.6636 59.0079 33.7003Z" fill="#CE1FBE"/>
<path d="M13.3455 0.916702C13.8288 1.41081 14.1035 1.97012 14.5203 2.38771C26.4599 14.3512 38.405 26.3094 50.3904 38.2269C51.0258 38.8587 52.0225 39.1273 52.972 39.5696C52.3027 40.3903 51.5124 41.2063 50.6436 42.072C49.9447 41.811 49.198 41.6306 48.7234 41.1698C43.1289 35.7388 37.5497 30.2916 32.0171 24.7977C24.6793 17.5112 17.3812 10.1849 10.0862 2.85564C9.60498 2.37218 9.29484 1.71846 8.89911 1.03369C10.3297 0.920919 11.7664 0.918385 13.3455 0.916702Z" fill="#C813DB"/>
<path d="M62.0731 30.639C61.3737 30.2316 60.6928 29.8504 60.1606 29.3199C51.1833 20.3715 42.2227 11.4064 33.268 2.43553C32.879 2.04586 32.5812 1.56516 32.2194 1.02395C32.252 0.920359 32.3061 0.91968 32.4416 0.918058C34.2631 0.917856 36.0032 0.918595 37.9067 1.02336C38.4458 1.60171 38.7792 2.118 39.2034 2.54394C44.1052 7.46589 49.0124 12.3826 53.9355 17.2832C57.5177 20.849 61.1259 24.3887 64.7225 27.9401C64.4767 28.2135 64.2309 28.4869 63.8379 28.8459C63.6244 29.0123 63.5581 29.0929 63.4918 29.1735C63.0481 29.6476 62.6045 30.1216 62.0731 30.639Z" fill="#D123B3"/>
<path d="M64.8137 27.8924C61.1259 24.3887 57.5177 20.849 53.9355 17.2832C49.0124 12.3826 44.1052 7.46588 39.2034 2.54393C38.7792 2.118 38.4458 1.6017 38.0505 1.02432C39.4681 0.921401 40.9054 0.921544 42.5061 1.02522C42.9005 1.45741 43.0889 1.82842 43.3685 2.10854C50.7793 9.53491 58.1901 16.9615 65.6417 24.3468C66.0911 24.7922 66.879 24.8961 67.5095 25.159C66.6413 26.0542 65.7731 26.9495 64.8137 27.8924Z" fill="#D226AC"/>
<path d="M67.5973 25.1133C66.879 24.8962 66.0911 24.7922 65.6417 24.3468C58.1901 16.9615 50.7793 9.53492 43.3684 2.10855C43.0889 1.82843 42.9005 1.45742 42.6492 1.026C44.1683 0.922547 45.7078 0.921866 47.4114 1.02476C47.9858 1.63668 48.3542 2.18693 48.8129 2.64703C55.2067 9.05946 61.6146 15.4578 68.0123 21.8663C68.4769 22.3317 68.889 22.8495 69.3255 23.3429C68.7787 23.9178 68.2319 24.4927 67.5973 25.1133Z" fill="#D429A4"/>
<path d="M69.4155 23.2935C68.889 22.8495 68.4769 22.3317 68.0123 21.8663C61.6146 15.4578 55.2067 9.05946 48.8129 2.64703C48.3542 2.18693 47.9858 1.63668 47.5546 1.02557C47.8606 0.921307 48.1876 0.919817 48.6372 0.917572C49.994 0.918359 51.2282 0.919901 52.6254 1.02482C52.9145 1.34713 52.9996 1.60708 53.1724 1.77908C59.4718 8.05195 65.7794 14.3167 72.0858 20.5825C71.2257 21.4697 70.3656 22.3569 69.4155 23.2935Z" fill="#D62D9B"/>
<path d="M72.1764 20.534C65.7794 14.3167 59.4718 8.05195 53.1724 1.77908C52.9996 1.60708 52.9145 1.34713 52.7675 1.02542C54.1838 0.921196 55.6212 0.919742 57.2013 0.917694C57.4813 0.918352 57.6186 0.919602 57.8793 1.0245C58.3762 1.59987 58.7079 2.11329 59.1297 2.53693C63.7882 7.21581 68.4674 11.8741 73.1188 16.5601C73.567 17.0116 73.8657 17.6113 74.2339 18.1423C73.5782 18.9233 72.9226 19.7044 72.1764 20.534Z" fill="#D83093"/>
<path d="M74.3385 18.1206C73.8657 17.6113 73.567 17.0115 73.1188 16.5601C68.4674 11.8741 63.7882 7.21581 59.1297 2.53693C58.7079 2.11328 58.3763 1.59987 57.9823 1.02529C59.399 0.922066 60.8362 0.921705 62.4375 1.0247C62.7959 1.41951 62.948 1.75312 63.1908 1.99614C67.5216 6.33155 71.8605 10.659 76.2125 14.9732C76.4118 15.1707 76.75 15.2282 77.0236 15.3509C76.1634 16.2669 75.3032 17.1828 74.3385 18.1206Z" fill="#D9338B"/>
<path d="M77.1126 15.3041C76.75 15.2281 76.4117 15.1707 76.2124 14.9731C71.8604 10.6589 67.5215 6.33154 63.1907 1.99613C62.9479 1.75311 62.7959 1.4195 62.5803 1.02528C63.7919 0.921139 65.0248 0.919772 66.399 0.917755C70.4439 4.76332 74.3434 8.61372 78.2597 12.447C78.5407 12.722 78.944 12.8721 79.3656 13.1535C78.6945 13.9036 77.9481 14.5804 77.1126 15.3041Z" fill="#DB3684"/>
<path d="M61.9652 61.8275C61.5972 61.7147 61.1349 61.5703 60.83 61.2676C56.2805 56.7496 51.7492 52.2131 47.2252 47.6695C46.9841 47.4274 46.8453 47.0832 46.643 46.6805C46.9617 46.7821 47.3506 46.9351 47.6228 47.2056C52.273 51.8278 56.9099 56.4633 61.5428 61.1028C61.7129 61.2731 61.812 61.5142 61.9652 61.8275Z" fill="#C613E6"/>
<path d="M85.5605 1.03818C87.4302 0.994247 89.3019 1.06603 91.2927 1.18914C90.2432 2.43955 89.0744 3.63864 87.8152 4.88583C87.3224 4.18653 86.9322 3.43227 86.5137 2.69403C86.2164 2.16947 85.8809 1.66651 85.5605 1.03818Z" fill="#E44560"/>
<path d="M90.4812 90.3426C89.3805 89.3892 88.2612 88.3306 87.127 87.1659C88.229 88.119 89.3458 89.1782 90.4812 90.3426Z" fill="#C613E6"/>
<path d="M67.4813 67.3424C66.3806 66.3891 65.2612 65.3305 64.127 64.1659C65.229 65.119 66.3459 66.1781 67.4813 67.3424Z" fill="#C613E6"/>
<path d="M84.9653 84.8275C83.966 83.9727 82.9458 83.0128 81.9097 81.9467C82.9106 82.8011 83.9274 83.7617 84.9653 84.8275Z" fill="#C613E6"/>
<path d="M64.1082 63.9702C63.8246 63.8304 63.5225 63.5865 63.2039 63.2381C63.4881 63.3777 63.7888 63.6219 64.1082 63.9702Z" fill="#C613E6"/>
<path d="M87.1082 86.9702C86.8246 86.8304 86.5225 86.5865 86.2039 86.238C86.4881 86.3777 86.7888 86.6218 87.1082 86.9702Z" fill="#C613E6"/>
<path d="M68.0982 67.965C67.923 67.9188 67.7262 67.7716 67.5072 67.5287C67.6822 67.5766 67.8795 67.7203 68.0982 67.965Z" fill="#C613E6"/>
<path d="M90.854 91.0763C90.6817 90.9231 90.5946 90.7685 90.4966 90.5239C90.682 90.5778 90.8782 90.7219 91.0917 90.9677C91.0524 91.0712 90.9957 91.073 90.854 91.0763Z" fill="#C613E6"/>
<path d="M80.6712 80.5381C80.4952 80.4906 80.2976 80.3416 80.0768 80.0965C80.2523 80.1458 80.451 80.2912 80.6712 80.5381Z" fill="#C613E6"/>
<path d="M82.283 10.4246C82.2582 10.2943 82.3152 10.1207 82.521 9.88258C82.7277 9.82051 82.7856 9.82297 82.8435 9.82542C82.6839 10.0107 82.5243 10.1959 82.283 10.4246Z" fill="#DC397C"/>
<path d="M87.0004 5.61861C86.9402 5.53343 86.9641 5.43136 87.1269 5.27445C87.3226 5.22278 87.3794 5.22594 87.4362 5.2291C87.319 5.35331 87.2018 5.47751 87.0004 5.61861Z" fill="#E03F6E"/>
<path d="M82.91 9.79524C82.7856 9.82296 82.7277 9.8205 82.5831 9.81398C82.6499 9.72246 82.8035 9.63502 83.0468 9.53645C83.1109 9.62367 83.0575 9.70359 82.91 9.79524Z" fill="#E03F6E"/>
<path d="M86.5773 6.12507C86.5676 6.0072 86.6411 5.84035 86.7933 5.62277C86.8015 5.74006 86.731 5.90808 86.5773 6.12507Z" fill="#E03F6E"/>
<path d="M87.5036 5.19766C87.3794 5.22594 87.3226 5.22278 87.1805 5.21502C87.2487 5.1222 87.402 5.03398 87.6451 4.93448C87.7082 5.02304 87.6536 5.10405 87.5036 5.19766Z" fill="#E44560"/>
<path d="M63.5648 29.1382C63.5581 29.0929 63.6244 29.0123 63.7543 28.8858C63.758 28.9277 63.6979 29.0153 63.5648 29.1382Z" fill="#CE1FBE"/>
<path d="M53.753 38.9534C53.7458 38.9068 53.8129 38.8256 53.9444 38.698C53.9483 38.7406 53.8879 38.8296 53.753 38.9534Z" fill="#C813DB"/>
<path d="M1.03263 58.5795C0.921089 55.8081 0.919951 53.0425 0.918335 50.1335C0.919074 49.7592 0.920292 49.5283 1.02495 49.2029C1.56625 49.4486 2.04665 49.746 2.43584 50.1348C15.8041 63.4883 29.1658 76.8483 42.515 90.2208C42.9316 90.6382 43.2061 91.1973 43.5469 91.6904C43.316 91.6916 43.0851 91.6928 42.7387 91.6948C39.9599 91.6945 37.2968 91.6933 34.4898 91.6917C34.0055 91.1977 33.7312 90.6383 33.3146 90.2207C23.1394 80.0206 12.9525 69.8322 2.74957 59.6598C2.30194 59.2135 1.68247 58.9396 1.03263 58.5795Z" fill="#9C38F3"/>
<path d="M0.922186 4.43668C1.52467 4.74262 2.19221 5.12545 2.71785 5.65038C19.7384 22.6476 36.7365 39.6672 53.761 56.6604C57.3716 60.2644 61.1039 63.7462 64.7221 67.3427C72.2843 74.8592 79.8105 82.4121 87.3411 89.9604C87.8019 90.4222 88.1721 90.9745 88.6055 91.5874C86.9843 91.6919 85.3422 91.6937 83.5567 91.6967C83.4133 91.6978 83.4133 91.6932 83.3923 91.5888C83.031 91.0464 82.7334 90.5658 82.3444 90.1766C55.7018 63.5206 29.0529 36.8708 2.39302 10.232C1.97592 9.81525 1.41654 9.54088 0.923561 9.20006C0.923561 9.20006 0.920082 9.20004 0.917729 9.19999C0.91728 7.6599 0.919182 6.11986 0.922186 4.43668Z" fill="#BF18E4"/>
<path d="M0.917603 37.8558C0.918449 35.9756 0.920353 34.2316 1.03329 32.3499C1.68353 32.5666 2.30595 32.8389 2.74908 33.2881C7.12198 37.7207 11.4329 42.2147 15.8277 46.6253C18.9243 49.733 22.1694 52.6928 25.2657 55.8008C29.8042 60.3567 34.2382 65.0165 38.7758 69.5733C41.7633 72.5734 44.8793 75.4451 47.8932 78.4194C51.7834 82.2585 55.6412 86.1307 59.477 90.0241C59.9082 90.4617 60.1064 91.1287 60.4126 91.6894C58.6687 91.6912 56.9247 91.6929 55.0373 91.6957C54.2672 91.6948 53.6406 91.6928 52.859 91.5873C52.3639 91.046 52.0663 90.5656 51.6775 90.1765C35.3615 73.8462 19.0405 57.5209 2.69823 41.217C2.22806 40.7479 1.52089 40.5164 0.924236 40.1741C0.922377 39.4468 0.920519 38.7195 0.917603 37.8558Z" fill="#A92CED"/>
<path d="M0.923039 40.3178C1.52088 40.5164 2.22804 40.7479 2.69821 41.217C19.0405 57.5209 35.3615 73.8462 51.6775 90.1765C52.0663 90.5657 52.3639 91.046 52.7247 91.5865C49.775 91.6902 46.8046 91.6913 43.6906 91.6914C43.2061 91.1974 42.9316 90.6382 42.515 90.2209C29.1658 76.8484 15.8041 63.4883 2.43583 50.1348C2.04664 49.7461 1.56624 49.4486 1.02563 49.0875C0.922545 46.1981 0.922201 43.3298 0.923039 40.3178Z" fill="#A331F0"/>
<path d="M0.91748 17.6249C0.918334 17.154 0.920212 16.8265 1.02684 16.3977C1.86781 16.8333 2.69132 17.2837 3.32445 17.9227C5.51388 20.1326 7.58737 22.4582 9.79515 24.6489C15.3395 30.1503 20.9531 35.5817 26.4971 41.0835C28.741 43.3103 30.8265 45.6967 33.0703 47.9236C38.1427 52.9577 43.2925 57.9138 48.3628 62.9501C50.8232 65.3939 53.1257 67.9967 55.5863 70.4403C62.107 76.9159 68.6836 83.3351 75.2072 89.8079C75.7144 90.3112 75.9814 91.0567 76.3601 91.6897C76.0326 91.6913 75.7052 91.6928 75.2549 91.6956C73.0812 91.6949 71.0305 91.6931 68.8152 91.5876C68.3106 91.0461 68.0131 90.5655 67.6241 90.1763C45.8886 68.4271 24.1468 46.6843 2.39371 24.9528C1.97657 24.536 1.41706 24.2618 0.92398 23.9211C0.922155 21.8703 0.92033 19.8194 0.91748 17.6249Z" fill="#B521E8"/>
<path d="M0.922858 24.0645C1.41708 24.2618 1.97659 24.536 2.39372 24.9528C24.1468 46.6843 45.8887 68.4271 67.6241 90.1763C68.0131 90.5655 68.3106 91.0461 68.6715 91.5867C67.0505 91.6912 65.4089 91.6931 63.6239 91.6961C62.5508 91.6954 61.6211 91.6936 60.552 91.6906C60.1064 91.1288 59.9082 90.4617 59.477 90.0241C55.6412 86.1308 51.7834 82.2585 47.8932 78.4194C44.8793 75.4451 41.7633 72.5734 38.7758 69.5733C34.2382 65.0165 29.8042 60.3567 25.2657 55.8009C22.1695 52.6928 18.9243 49.733 15.8277 46.6253C11.4329 42.2147 7.122 37.7207 2.7491 33.2881C2.30597 32.8389 1.68355 32.5666 1.03414 32.2065C0.922145 31.3723 0.920338 30.5438 0.917358 29.5773C0.918031 27.6954 0.919876 25.9516 0.922858 24.0645Z" fill="#AF26EB"/>
<path d="M76.5038 91.6908C75.9814 91.0567 75.7144 90.3112 75.2072 89.8079C68.6836 83.3351 62.107 76.9159 55.5863 70.4403C53.1257 67.9967 50.8232 65.3939 48.3628 62.95C43.2925 57.9138 38.1427 52.9577 33.0703 47.9236C30.8265 45.6967 28.741 43.3103 26.4971 41.0835C20.9531 35.5817 15.3394 30.1503 9.79514 24.6489C7.58737 22.4582 5.51388 20.1326 3.32445 17.9227C2.69132 17.2837 1.86781 16.8333 1.02758 16.275C0.922839 13.9982 0.922097 11.7428 0.922457 9.34373C1.41654 9.54087 1.97592 9.81524 2.39301 10.232C29.0529 36.8708 55.7018 63.5205 82.3444 90.1766C82.7334 90.5658 83.031 91.0464 83.3922 91.5871C81.158 91.6905 78.9027 91.6912 76.5038 91.6908Z" fill="#BB1CE6"/>
</g>
<defs>
<clipPath id="clip0_105_663">
<rect width="92" height="92" fill="white"/>
</clipPath>
</defs>
</svg>
