<svg width="50" height="27" viewBox="0 0 50 27" fill="none" xmlns="http://www.w3.org/2000/svg">
<path d="M13.292 26.36C11.444 26.36 9.74 26.048 8.18 25.424C6.644 24.776 5.3 23.876 4.148 22.724C3.02 21.548 2.144 20.168 1.52 18.584C0.92 17 0.62 15.26 0.62 13.364C0.62 11.516 0.944 9.812 1.592 8.252C2.24 6.668 3.152 5.288 4.328 4.112C5.504 2.936 6.872 2.024 8.432 1.376C10.016 0.727999 11.732 0.403999 13.58 0.403999C14.78 0.403999 15.956 0.571999 17.108 0.907999C18.284 1.22 19.352 1.7 20.312 2.348C21.296 2.972 22.136 3.704 22.832 4.544L19.448 8.324C18.608 7.412 17.696 6.716 16.712 6.236C15.728 5.756 14.672 5.516 13.544 5.516C12.512 5.516 11.54 5.708 10.628 6.092C9.74 6.452 8.96 6.98 8.288 7.676C7.616 8.372 7.088 9.2 6.704 10.16C6.32 11.12 6.128 12.188 6.128 13.364C6.128 14.564 6.308 15.656 6.668 16.64C7.052 17.6 7.592 18.428 8.288 19.124C8.984 19.796 9.812 20.324 10.772 20.708C11.756 21.068 12.836 21.248 14.012 21.248C14.78 21.248 15.512 21.14 16.208 20.924C16.928 20.708 17.6 20.408 18.224 20.024C18.848 19.64 19.4 19.196 19.88 18.692L22.508 22.904C21.956 23.552 21.188 24.14 20.204 24.668C19.22 25.196 18.128 25.616 16.928 25.928C15.728 26.216 14.516 26.36 13.292 26.36ZM34.2612 26L24.1812 0.799998H29.9412L35.1612 14.372C35.4492 15.116 35.7012 15.788 35.9172 16.388C36.1332 16.964 36.3132 17.504 36.4572 18.008C36.6252 18.488 36.7812 18.968 36.9252 19.448C37.0692 19.904 37.2252 20.408 37.3932 20.96L36.3132 20.996C36.5292 20.228 36.7332 19.532 36.9252 18.908C37.1172 18.26 37.3332 17.588 37.5732 16.892C37.8132 16.172 38.1132 15.332 38.4732 14.372L43.4412 0.799998H49.1292L38.9772 26H34.2612Z" fill="black"/>
</svg>
