<svg width="45" height="45" viewBox="0 0 45 45" fill="none" xmlns="http://www.w3.org/2000/svg">
<path d="M13.0046 4.28944C14.3886 4.73269 15.7048 5.34757 16.919 6.11813C18.6349 5.70129 20.3995 5.49217 22.1708 5.49575C24 5.49575 25.7647 5.71253 27.4189 6.11638C28.6326 5.34657 29.9482 4.73228 31.3314 4.28944C32.6154 3.8751 34.4446 3.20377 35.5314 4.34539C36.2682 5.12162 36.4524 6.42233 36.5832 7.41534C36.7306 8.52374 36.7656 9.96781 36.3787 11.4014C37.8579 13.2143 38.7495 15.3769 38.7495 17.7336C38.7495 21.3036 36.7122 24.4032 33.6967 26.5501C32.2448 27.5692 30.6354 28.3689 28.9257 28.9208C29.3199 29.7774 29.5391 30.725 29.5391 31.7197V36.9645C29.5391 37.4282 29.345 37.8729 28.9996 38.2007C28.6541 38.5286 28.1856 38.7128 27.697 38.7128H16.6445C16.156 38.7128 15.6874 38.5286 15.342 38.2007C14.9965 37.8729 14.8024 37.4282 14.8024 36.9645V35.232C13.0432 35.4365 11.5677 35.2547 10.3133 34.7495C9.00171 34.2215 8.08804 33.4033 7.40094 32.6201C6.74885 31.8788 6.0378 30.2075 5.00992 29.8823C4.78035 29.8098 4.56809 29.695 4.38525 29.5446C4.2024 29.3942 4.05257 29.2111 3.94429 29.0057C3.72562 28.591 3.6895 28.1108 3.84388 27.6708C3.99826 27.2307 4.3305 26.8669 4.7675 26.6594C5.20451 26.4519 5.71048 26.4176 6.17412 26.5641C7.40094 26.9522 8.20041 27.7914 8.74751 28.4662C9.63171 29.5501 10.3501 30.9662 11.7501 31.5309C12.3267 31.7634 13.1722 31.9155 14.4948 31.7442L14.8024 31.6848C14.8067 30.7334 15.0154 29.7929 15.4158 28.9208C13.7062 28.3689 12.0968 27.5692 10.6449 26.5501C7.62936 24.4032 5.59202 21.3053 5.59202 17.7336C5.59202 15.3804 6.48174 13.2196 7.95725 11.4084C7.57041 9.9748 7.60357 8.52724 7.75094 7.41709L7.76015 7.35066C7.89462 6.33317 8.0512 5.1356 8.80277 4.34539C9.8896 3.20377 11.7206 3.87685 13.0027 4.29119L13.0046 4.28944Z" fill="#060606"/>
</svg>
