<svg width="33" height="37" viewBox="0 0 33 37" fill="none" xmlns="http://www.w3.org/2000/svg">
<path fill-rule="evenodd" clip-rule="evenodd" d="M16.5 20.8217C17.7373 20.8217 18.9239 20.3303 19.799 19.4557C20.6742 18.581 21.1661 17.3946 21.1667 16.1573C21.1667 14.9197 20.675 13.7327 19.7999 12.8575C18.9247 11.9823 17.7377 11.4907 16.5 11.4907C15.2624 11.4907 14.0754 11.9823 13.2002 12.8575C12.325 13.7327 11.8334 14.9197 11.8334 16.1573C11.834 17.3946 12.3259 18.581 13.201 19.4557C14.0761 20.3303 15.2628 20.8217 16.5 20.8217Z" stroke="black" stroke-width="4" stroke-linecap="square"/>
<path fill-rule="evenodd" clip-rule="evenodd" d="M30.5 16.1574C30.5 27.817 18.8333 34.8124 16.5 34.8124C14.1667 34.8124 2.5 27.817 2.5 16.1574C2.50186 12.4458 3.97775 8.88683 6.60312 6.26321C9.2285 3.63958 12.7884 2.16607 16.5 2.16669C24.2303 2.16669 30.5 8.43169 30.5 16.1574Z" stroke="black" stroke-width="4" stroke-linecap="square"/>
</svg>
