<svg width="35" height="35" viewBox="0 0 35 35" fill="none" xmlns="http://www.w3.org/2000/svg">
<path fill-rule="evenodd" clip-rule="evenodd" d="M18.6156 10.024V13.9837C19.393 12.7206 20.4645 11.6944 21.7253 11.0057C22.9861 10.3169 24.3929 9.98907 25.8081 10.0543C33.3659 10.0543 35 15.0943 35 21.651V35H28V23.1653C28 20.342 27.4662 16.7113 23.345 16.7113C19.3484 16.7113 18.6659 19.7843 18.6659 22.9553V35H11.6878V10.024H18.6156ZM6.99999 3.74733C6.99913 4.48701 6.79358 5.20995 6.4091 5.82552C6.02463 6.4411 5.47835 6.92191 4.83874 7.20767C4.1994 7.49112 3.49544 7.56527 2.81647 7.42067C2.1375 7.27607 1.51421 6.91927 1.02593 6.39567C0.536729 5.87174 0.203679 5.20522 0.0686617 4.47992C-0.0663559 3.75463 0.00268744 3.00295 0.267108 2.3194C0.531528 1.63585 0.979521 1.05095 1.55475 0.638258C2.12998 0.225566 2.80676 0.00350561 3.49999 0C3.96072 -3.45542e-06 4.41692 0.0970237 4.84242 0.285516C5.26792 0.474009 5.65434 0.750257 5.97952 1.09841C6.30469 1.44657 6.56223 1.85978 6.73735 2.31435C6.91246 2.76891 7.00172 3.25589 6.99999 3.74733Z" fill="black"/>
<path d="M7 10.0544H0V35.0001H7V10.0544Z" fill="black"/>
</svg>
