<svg width="112" height="105" viewBox="0 0 112 105" fill="none" xmlns="http://www.w3.org/2000/svg">
<g clip-path="url(#clip0_105_757)">
<path d="M0.47258 39.9296C0.47258 26.6197 0.47258 13.5563 0.47258 0.492969C37.8059 0.492967 75.1392 0.492967 112.473 0.492966C112.473 35.4929 112.473 70.4929 112.473 105.493C75.1393 105.493 37.806 105.493 0.472613 105.493C0.47258 83.7207 0.47258 61.9484 0.47258 39.9296ZM108.507 60.6651C111.353 55.8484 111.585 50.9779 108.856 46.002C108.523 45.394 108.338 44.62 108.316 43.9152C107.995 33.4951 105.668 23.4684 102.837 13.5481C101.792 9.88857 100.557 6.28825 99.3859 2.58879C96.8868 6.87611 94.5314 10.9171 91.9218 15.394C90.3658 12.6105 89.2854 10.5262 88.0687 8.53248C85.5173 4.35168 81.8211 2.07037 77.0686 2.04703C63.2865 1.97935 49.5038 1.98127 35.7217 2.04616C30.7928 2.06936 26.9241 4.31404 24.4213 8.81905C17.5231 21.2361 10.6549 33.6713 3.7827 46.104C1.19718 50.7816 1.26877 55.4477 3.8537 60.1129C10.6205 72.3254 17.3689 84.5489 24.1326 96.7633C26.7957 101.573 30.7502 104.037 36.129 104.026C49.5962 103.999 63.0636 104.009 76.5309 104.022C81.7802 104.026 85.757 101.747 88.3924 96.9801C95.0296 84.9744 101.669 72.9702 108.507 60.6651Z" fill="#FEFFFE"/>
<path d="M108.407 60.8153C101.669 72.9702 95.0296 84.9744 88.3924 96.9801C85.757 101.747 81.7802 104.026 76.5309 104.022C63.0636 104.009 49.5962 103.999 36.1289 104.026C30.7502 104.037 26.7957 101.573 24.1326 96.7633C17.3689 84.5489 10.6205 72.3254 3.8537 60.1129C1.26876 55.4477 1.19717 50.7816 3.7827 46.104C10.6549 33.6712 17.5231 21.2361 24.4213 8.81904C26.9241 4.31403 30.7928 2.06935 35.7217 2.04615C49.5038 1.98126 63.2865 1.97934 77.0686 2.04702C81.8211 2.07036 85.5173 4.35168 88.0687 8.53247C89.2854 10.5262 90.3658 12.6105 91.9218 15.394C94.5314 10.917 96.8868 6.8761 99.3859 2.58878C100.557 6.28824 101.792 9.88856 102.837 13.5481C105.668 23.4684 107.995 33.4951 108.316 43.9152C108.338 44.62 108.523 45.394 108.856 46.002C111.585 50.9779 111.352 55.8484 108.407 60.8153ZM90.8993 44.5114C91.0171 44.9973 91.1349 45.4832 91.2241 46.3145C83.4546 62.4591 71.66 73.8331 55.0449 79.4628C49.5596 81.3214 44.0473 83.0936 37.9076 85.1161C42.2696 85.1161 45.9195 85.1444 49.5689 85.1106C59.4724 85.019 69.3898 86.1573 79.2699 84.2789C92.3737 81.7876 101.027 74.2893 104.557 60.7027C106.719 52.3842 106.532 43.9913 105.42 35.5509C104.201 26.3013 101.841 17.3607 99.0443 8.63403C96.6815 11.6947 94.628 14.9205 92.0489 17.5948C82.4416 27.5568 70.6891 32.2193 57.2005 32.6122C52.7422 32.742 48.2173 33.1487 43.8696 34.1335C30.2156 37.2262 21.1354 49.0384 21.8206 62.5817C22.1122 68.3465 23.8627 73.5688 28.6608 77.0518C29.6123 77.7426 31.0693 78.4236 32.0743 78.169C40.7643 75.9673 49.576 74.0771 58.0199 71.078C71.7756 66.1922 82.4742 56.8459 90.8993 44.5114ZM30.7002 84.7961C29.4583 81.8623 27.3673 80.692 25.0435 81.63C22.9604 82.4709 21.7857 84.7578 22.3057 86.9597C22.8244 89.1554 24.8618 90.5561 27.1273 90.2744C29.5001 89.9793 30.685 88.3164 30.7002 84.7961Z" fill="#6EB340"/>
<path d="M90.5982 44.2954C82.4742 56.8459 71.7756 66.1922 58.0199 71.078C49.576 74.0771 40.7643 75.9673 32.0743 78.169C31.0693 78.4236 29.6124 77.7426 28.6608 77.0518C23.8627 73.5688 22.1122 68.3465 21.8206 62.5817C21.1354 49.0384 30.2156 37.2262 43.8696 34.1335C48.2173 33.1487 52.7422 32.742 57.2005 32.6122C70.6891 32.2193 82.4416 27.5568 92.0489 17.5948C94.628 14.9205 96.6815 11.6948 99.0443 8.63403C101.841 17.3607 104.201 26.3013 105.42 35.5509C106.532 43.9913 106.719 52.3842 104.557 60.7027C101.027 74.2893 92.3737 81.7876 79.2699 84.2789C69.3898 86.1573 59.4724 85.019 49.5689 85.1106C45.9195 85.1444 42.2696 85.1161 37.9076 85.1161C44.0473 83.0936 49.5596 81.3214 55.0449 79.4628C71.66 73.8331 83.4546 62.4591 91.3619 46.0187C92.3362 43.4135 93.1727 41.1042 94.0093 38.7948C93.8248 38.7121 93.6404 38.6293 93.456 38.5466C92.5034 40.4628 91.5508 42.3791 90.5982 44.2954Z" fill="#FEFFFE"/>
<path d="M30.7236 84.9954C30.685 88.3164 29.5001 89.9793 27.1273 90.2743C24.8618 90.556 22.8244 89.1554 22.3057 86.9597C21.7857 84.7578 22.9604 82.4709 25.0435 81.63C27.3673 80.6919 29.4583 81.8623 30.7236 84.9954Z" fill="#FCFDFB"/>
<path d="M90.7487 44.4034C91.5508 42.3791 92.5034 40.4629 93.456 38.5466C93.6404 38.6293 93.8248 38.7121 94.0093 38.7948C93.1727 41.1042 92.3362 43.4135 91.3762 45.846C91.1349 45.4832 91.0171 44.9973 90.7487 44.4034Z" fill="#72B644"/>
</g>
<defs>
<clipPath id="clip0_105_757">
<rect width="112" height="105" fill="white"/>
</clipPath>
</defs>
</svg>
