<svg width="128" height="128" viewBox="0 0 128 128" fill="none" xmlns="http://www.w3.org/2000/svg">
<g clip-path="url(#clip0_47_338)">
<path d="M63.991 128L115.693 98.145L95.876 86.684L75.616 98.388C75.4434 98.483 75.2493 98.532 75.0523 98.5304C74.8553 98.5289 74.662 98.4767 74.491 98.379C74.3205 98.279 74.1787 98.1367 74.0792 97.9659C73.9797 97.7951 73.9259 97.6016 73.923 97.404V69.608C73.923 68.789 74.347 68.048 75.056 67.64L99.13 53.737C99.3015 53.6393 99.4958 53.5887 99.6932 53.5903C99.8906 53.5918 100.084 53.6456 100.254 53.746C100.606 53.941 100.826 54.31 100.83 54.712V78.11L120.66 89.564V29.855L63.99 62.566L63.991 128Z" fill="black"/>
<path d="M52.397 98.401L32.127 86.683L12.295 98.143L63.991 128V62.566L7.34 29.854V89.56L27.165 78.11V54.714C27.174 54.313 27.39 53.944 27.737 53.748C27.908 53.6475 28.1024 53.5937 28.3008 53.5921C28.4991 53.5905 28.6944 53.6412 28.867 53.739L52.953 67.64C53.2976 67.8406 53.5836 68.1281 53.7824 68.4738C53.9812 68.8195 54.0859 69.2112 54.086 69.61V97.41C54.0833 97.608 54.0299 97.802 53.931 97.9735C53.8321 98.1451 53.691 98.2885 53.521 98.39C53.351 98.4899 53.1578 98.5436 52.9606 98.5457C52.7634 98.5478 52.5691 98.4983 52.397 98.402" fill="#4D4D4D"/>
<path d="M68.959 0V22.9L89.22 34.597C89.568 34.8 89.775 35.173 89.775 35.581C89.775 35.984 89.563 36.353 89.22 36.556L65.137 50.468C64.7909 50.6643 64.3999 50.7676 64.002 50.7676C63.6041 50.7676 63.213 50.6643 62.867 50.468L38.791 36.556C38.62 36.4573 38.4781 36.3151 38.3798 36.1439C38.2814 35.9726 38.2301 35.7785 38.231 35.581C38.2295 35.3822 38.2805 35.1866 38.3789 35.0138C38.4772 34.841 38.6193 34.6973 38.791 34.597L59.048 22.9V0L7.33899 29.855L63.991 62.566L120.656 29.856L68.959 0Z" fill="#808080"/>
</g>
<defs>
<clipPath id="clip0_47_338">
<rect width="128" height="128" fill="white"/>
</clipPath>
</defs>
</svg>
