<svg width="128" height="128" viewBox="0 0 128 128" fill="none" xmlns="http://www.w3.org/2000/svg">
<g clip-path="url(#clip0_47_350)">
<path d="M98 0H30C13.4315 0 0 13.4315 0 30V98C0 114.569 13.4315 128 30 128H98C114.569 128 128 114.569 128 98V30C128 13.4315 114.569 0 98 0Z" fill="#242938"/>
<path d="M64.0005 73.4756C69.1525 73.4756 73.3285 69.2991 73.3285 64.1476C73.3285 58.9961 69.1525 54.8196 64.0005 54.8196C58.849 54.8196 54.6725 58.9961 54.6725 64.1476C54.6725 69.2991 58.849 73.4756 64.0005 73.4756Z" fill="#00D8FF"/>
<path d="M64.001 45.1814C76.525 45.1814 88.1595 46.9784 96.932 49.9989C107.501 53.6374 114 59.1529 114 64.1474C114 69.3519 107.113 75.2114 95.7625 78.9719C87.1815 81.8149 75.8895 83.2989 64.001 83.2989C51.812 83.2989 40.2695 81.9059 31.5915 78.9404C20.6125 75.1879 14 69.2529 14 64.1474C14 59.1934 20.205 53.7204 30.626 50.0874C39.431 47.0174 51.3525 45.1814 63.999 45.1814H64.001Z" stroke="#00D8FF" stroke-width="8.911"/>
<path d="M47.4905 54.719C53.7475 43.87 61.116 34.689 68.115 28.599C76.547 21.2605 84.572 18.3865 88.898 20.881C93.4065 23.481 95.042 32.375 92.6295 44.086C90.807 52.9395 86.45 63.4625 80.5105 73.7615C74.421 84.3205 67.4485 93.6235 60.545 99.6575C51.8095 107.293 43.364 110.057 38.9415 107.506C34.65 105.033 33.009 96.923 35.068 86.0805C36.8075 76.919 41.173 65.6745 47.4885 54.719H47.4905Z" stroke="#00D8FF" stroke-width="8.911"/>
<path d="M47.506 73.789C41.2315 62.952 36.9595 51.981 35.1765 42.876C33.03 31.9055 34.5475 23.518 38.87 21.016C43.3745 18.408 51.896 21.433 60.837 29.372C67.597 35.374 74.5385 44.4025 80.495 54.6915C86.602 65.2405 91.179 75.928 92.9595 84.922C95.2125 96.304 93.389 105.001 88.9705 107.558C84.6835 110.04 76.838 107.413 68.4725 100.214C61.4045 94.1315 53.8425 84.734 47.506 73.789Z" stroke="#00D8FF" stroke-width="8.911"/>
</g>
<defs>
<clipPath id="clip0_47_350">
<rect width="128" height="128" fill="white"/>
</clipPath>
</defs>
</svg>
