<svg width="128" height="128" viewBox="0 0 128 128" fill="none" xmlns="http://www.w3.org/2000/svg">
<g clip-path="url(#clip0_47_342)">
<path d="M98 0H30C13.4315 0 0 13.4315 0 30V98C0 114.569 13.4315 128 30 128H98C114.569 128 128 114.569 128 98V30C128 13.4315 114.569 0 98 0Z" fill="#F0DB4F"/>
<path d="M33.656 106.966L43.451 101.038C45.341 104.388 47.06 107.223 51.1835 107.223C55.136 107.223 57.628 105.677 57.628 99.6634V58.7644H69.657V99.8334C69.657 112.292 62.354 117.963 51.699 117.963C42.0765 117.963 36.491 112.979 33.6555 106.965M76.1905 105.677L85.9845 100.006C88.563 104.217 91.914 107.31 97.842 107.31C102.827 107.31 106.005 104.818 106.005 101.381C106.005 97.2569 102.74 95.7959 97.2405 93.3909L94.234 92.1014C85.5555 88.4074 79.7985 83.7674 79.7985 73.9724C79.7985 64.9504 86.6725 58.0764 97.413 58.0764C105.06 58.0764 110.559 60.7404 114.511 67.6999L105.146 73.7144C103.083 70.0199 100.85 68.5594 97.413 68.5594C93.89 68.5594 91.656 70.7934 91.656 73.7144C91.656 77.3229 93.89 78.7839 99.045 81.0184L102.052 82.3069C112.277 86.6894 118.034 91.1564 118.034 101.209C118.034 112.036 109.528 117.964 98.1 117.964C86.9305 117.964 79.713 112.637 76.1905 105.677Z" fill="#323330"/>
</g>
<defs>
<clipPath id="clip0_47_342">
<rect width="128" height="128" fill="white"/>
</clipPath>
</defs>
</svg>
